{"accessors":[{"bufferView":0,"byteOffset":0,"componentType":5126,"count":3280,"max":[0.018704000860452652,-0.276419997215271,0.06654399633407593],"min":[0.0033130000811070204,-0.33688798546791077,0.05429299920797348],"type":"VEC3"},{"bufferView":1,"byteOffset":0,"componentType":5125,"count":19668,"type":"SCALAR"}],"asset":{"generator":"VTK","version":"2.0"},"bufferViews":[{"buffer":0,"byteLength":39360,"byteOffset":0,"target":34962},{"buffer":1,"byteLength":78672,"byteOffset":0,"target":34963}],"buffers":[{"byteLength":39360,"uri":"buffer362936.bin"},{"byteLength":78672,"uri":"buffer363989.bin"}],"cameras":[{"perspective":{"aspectRatio":1.3333333333333333,"yfov":0.5235987755982988,"zfar":1000.01,"znear":0.01},"type":"perspective"}],"materials":[{"pbrMetallicRoughness":{"baseColorFactor":[1.0,1.0,1.0,1.0],"metallicFactor":0.0,"roughnessFactor":1.0}}],"meshes":[{"name":"mesh0","primitives":[{"attributes":{"POSITION":0},"indices":1,"material":0,"mode":4}]}],"nodes":[{"mesh":0,"name":"mesh0"},{"camera":0,"matrix":[1.0,-0.0,0.0,-0.0,-0.0,1.0,-0.0,0.0,0.0,-0.0,1.0,-0.0,-0.0,0.0,1.0,1.0],"name":"Camera Node"},{"children":[0,1],"name":"Renderer Node"}],"scene":0,"scenes":[{"name":"Layer 0","nodes":[2]}]}