{"accessors":[{"bufferView":0,"byteOffset":0,"componentType":5126,"count":4230,"max":[0.015883000567555428,-0.2722280025482178,0.09840500354766846],"min":[0.0023849999997764826,-0.33611300587654114,0.07323399931192398],"type":"VEC3"},{"bufferView":1,"byteOffset":0,"componentType":5125,"count":25368,"type":"SCALAR"}],"asset":{"generator":"VTK","version":"2.0"},"bufferViews":[{"buffer":0,"byteLength":50760,"byteOffset":0,"target":34962},{"buffer":1,"byteLength":101472,"byteOffset":0,"target":34963}],"buffers":[{"byteLength":50760,"uri":"buffer309531.bin"},{"byteLength":101472,"uri":"buffer310584.bin"}],"cameras":[{"perspective":{"aspectRatio":1.3333333333333333,"yfov":0.5235987755982988,"zfar":1000.01,"znear":0.01},"type":"perspective"}],"materials":[{"pbrMetallicRoughness":{"baseColorFactor":[1.0,1.0,1.0,1.0],"metallicFactor":0.0,"roughnessFactor":1.0}}],"meshes":[{"name":"mesh0","primitives":[{"attributes":{"POSITION":0},"indices":1,"material":0,"mode":4}]}],"nodes":[{"mesh":0,"name":"mesh0"},{"camera":0,"matrix":[1.0,-0.0,0.0,-0.0,-0.0,1.0,-0.0,0.0,0.0,-0.0,1.0,-0.0,-0.0,0.0,1.0,1.0],"name":"Camera Node"},{"children":[0,1],"name":"Renderer Node"}],"scene":0,"scenes":[{"name":"Layer 0","nodes":[2]}]}