{"accessors":[{"bufferView":0,"byteOffset":0,"componentType":5126,"count":1997,"max":[0.05852299928665161,-0.29795798659324646,0.1308249980211258],"min":[0.03680000081658363,-0.3255540132522583,0.11099900305271149],"type":"VEC3"},{"bufferView":1,"byteOffset":0,"componentType":5125,"count":11970,"type":"SCALAR"}],"asset":{"generator":"VTK","version":"2.0"},"bufferViews":[{"buffer":0,"byteLength":23964,"byteOffset":0,"target":34962},{"buffer":1,"byteLength":47880,"byteOffset":0,"target":34963}],"buffers":[{"byteLength":23964,"uri":"buffer206105.bin"},{"byteLength":47880,"uri":"buffer207158.bin"}],"cameras":[{"perspective":{"aspectRatio":1.3333333333333333,"yfov":0.5235987755982988,"zfar":1000.01,"znear":0.01},"type":"perspective"}],"materials":[{"pbrMetallicRoughness":{"baseColorFactor":[1.0,1.0,1.0,1.0],"metallicFactor":0.0,"roughnessFactor":1.0}}],"meshes":[{"name":"mesh0","primitives":[{"attributes":{"POSITION":0},"indices":1,"material":0,"mode":4}]}],"nodes":[{"mesh":0,"name":"mesh0"},{"camera":0,"matrix":[1.0,-0.0,0.0,-0.0,-0.0,1.0,-0.0,0.0,0.0,-0.0,1.0,-0.0,-0.0,0.0,1.0,1.0],"name":"Camera Node"},{"children":[0,1],"name":"Renderer Node"}],"scene":0,"scenes":[{"name":"Layer 0","nodes":[2]}]}