{"accessors":[{"bufferView":0,"byteOffset":0,"componentType":5126,"count":2838,"max":[0.01217500027269125,-0.3370720148086548,0.08690699934959412],"min":[0.0022430000826716423,-0.37981700897216797,0.0708869993686676],"type":"VEC3"},{"bufferView":1,"byteOffset":0,"componentType":5125,"count":17016,"type":"SCALAR"}],"asset":{"generator":"VTK","version":"2.0"},"bufferViews":[{"buffer":0,"byteLength":34056,"byteOffset":0,"target":34962},{"buffer":1,"byteLength":68064,"byteOffset":0,"target":34963}],"buffers":[{"byteLength":34056,"uri":"buffer33256.bin"},{"byteLength":68064,"uri":"buffer34309.bin"}],"cameras":[{"perspective":{"aspectRatio":1.3333333333333333,"yfov":0.5235987755982988,"zfar":1000.01,"znear":0.01},"type":"perspective"}],"materials":[{"pbrMetallicRoughness":{"baseColorFactor":[1.0,1.0,1.0,1.0],"metallicFactor":0.0,"roughnessFactor":1.0}}],"meshes":[{"name":"mesh0","primitives":[{"attributes":{"POSITION":0},"indices":1,"material":0,"mode":4}]}],"nodes":[{"mesh":0,"name":"mesh0"},{"camera":0,"matrix":[1.0,-0.0,0.0,-0.0,-0.0,1.0,-0.0,0.0,0.0,-0.0,1.0,-0.0,-0.0,0.0,1.0,1.0],"name":"Camera Node"},{"children":[0,1],"name":"Renderer Node"}],"scene":0,"scenes":[{"name":"Layer 0","nodes":[2]}]}