{"accessors":[{"bufferView":0,"byteOffset":0,"componentType":5126,"count":1616,"max":[0.01656999997794628,-0.2519339919090271,0.058921001851558685],"min":[0.0038139999378472567,-0.2682949900627136,0.046884000301361084],"type":"VEC3"},{"bufferView":1,"byteOffset":0,"componentType":5125,"count":9684,"type":"SCALAR"}],"asset":{"generator":"VTK","version":"2.0"},"bufferViews":[{"buffer":0,"byteLength":19392,"byteOffset":0,"target":34962},{"buffer":1,"byteLength":38736,"byteOffset":0,"target":34963}],"buffers":[{"byteLength":19392,"uri":"buffer142518.bin"},{"byteLength":38736,"uri":"buffer143571.bin"}],"cameras":[{"perspective":{"aspectRatio":1.3333333333333333,"yfov":0.5235987755982988,"zfar":1000.01,"znear":0.01},"type":"perspective"}],"materials":[{"pbrMetallicRoughness":{"baseColorFactor":[1.0,1.0,1.0,1.0],"metallicFactor":0.0,"roughnessFactor":1.0}}],"meshes":[{"name":"mesh0","primitives":[{"attributes":{"POSITION":0},"indices":1,"material":0,"mode":4}]}],"nodes":[{"mesh":0,"name":"mesh0"},{"camera":0,"matrix":[1.0,-0.0,0.0,-0.0,-0.0,1.0,-0.0,0.0,0.0,-0.0,1.0,-0.0,-0.0,0.0,1.0,1.0],"name":"Camera Node"},{"children":[0,1],"name":"Renderer Node"}],"scene":0,"scenes":[{"name":"Layer 0","nodes":[2]}]}