{"accessors":[{"bufferView":0,"byteOffset":0,"componentType":5126,"count":2542,"max":[0.027326000854372978,-0.27427300810813904,0.05733000114560127],"min":[0.008473999798297882,-0.32852599024772644,0.04446500167250633],"type":"VEC3"},{"bufferView":1,"byteOffset":0,"componentType":5125,"count":15240,"type":"SCALAR"}],"asset":{"generator":"VTK","version":"2.0"},"bufferViews":[{"buffer":0,"byteLength":30504,"byteOffset":0,"target":34962},{"buffer":1,"byteLength":60960,"byteOffset":0,"target":34963}],"buffers":[{"byteLength":30504,"uri":"buffer395521.bin"},{"byteLength":60960,"uri":"buffer396574.bin"}],"cameras":[{"perspective":{"aspectRatio":1.3333333333333333,"yfov":0.5235987755982988,"zfar":1000.01,"znear":0.01},"type":"perspective"}],"materials":[{"pbrMetallicRoughness":{"baseColorFactor":[1.0,1.0,1.0,1.0],"metallicFactor":0.0,"roughnessFactor":1.0}}],"meshes":[{"name":"mesh0","primitives":[{"attributes":{"POSITION":0},"indices":1,"material":0,"mode":4}]}],"nodes":[{"mesh":0,"name":"mesh0"},{"camera":0,"matrix":[1.0,-0.0,0.0,-0.0,-0.0,1.0,-0.0,0.0,0.0,-0.0,1.0,-0.0,-0.0,0.0,1.0,1.0],"name":"Camera Node"},{"children":[0,1],"name":"Renderer Node"}],"scene":0,"scenes":[{"name":"Layer 0","nodes":[2]}]}