{"accessors":[{"bufferView":0,"byteOffset":0,"componentType":5126,"count":211,"max":[0.014062999747693539,0.012145999819040298,0.05611100047826767],"min":[-0.028320999816060066,-0.24757899343967438,-0.014065999537706375],"type":"VEC3"},{"bufferView":1,"byteOffset":0,"componentType":5125,"count":1194,"type":"SCALAR"}],"asset":{"generator":"VTK","version":"2.0"},"bufferViews":[{"buffer":0,"byteLength":2532,"byteOffset":0,"target":34962},{"buffer":1,"byteLength":4776,"byteOffset":0,"target":34963}],"buffers":[{"byteLength":2532,"uri":"buffer214055.bin"},{"byteLength":4776,"uri":"buffer215108.bin"}],"cameras":[{"perspective":{"aspectRatio":1.3333333333333333,"yfov":0.5235987755982988,"zfar":1000.01,"znear":0.01},"type":"perspective"}],"materials":[{"pbrMetallicRoughness":{"baseColorFactor":[1.0,1.0,1.0,1.0],"metallicFactor":0.0,"roughnessFactor":1.0}}],"meshes":[{"name":"mesh0","primitives":[{"attributes":{"POSITION":0},"indices":1,"material":0,"mode":4}]}],"nodes":[{"mesh":0,"name":"mesh0"},{"camera":0,"matrix":[1.0,-0.0,0.0,-0.0,-0.0,1.0,-0.0,0.0,0.0,-0.0,1.0,-0.0,-0.0,0.0,1.0,1.0],"name":"Camera Node"},{"children":[0,1],"name":"Renderer Node"}],"scene":0,"scenes":[{"name":"Layer 0","nodes":[2]}]}