{"accessors":[{"bufferView":0,"byteOffset":0,"componentType":5126,"count":1884,"max":[0.01644200086593628,-0.24551400542259216,0.0696519985795021],"min":[0.00036899998667649925,-0.2582339942455292,0.05558599904179573],"type":"VEC3"},{"bufferView":1,"byteOffset":0,"componentType":5125,"count":11160,"type":"SCALAR"}],"asset":{"generator":"VTK","version":"2.0"},"bufferViews":[{"buffer":0,"byteLength":22608,"byteOffset":0,"target":34962},{"buffer":1,"byteLength":44640,"byteOffset":0,"target":34963}],"buffers":[{"byteLength":22608,"uri":"buffer24989.bin"},{"byteLength":44640,"uri":"buffer26252.bin"}],"cameras":[{"perspective":{"aspectRatio":1.3333333333333333,"yfov":0.5235987755982988,"zfar":1000.01,"znear":0.01},"type":"perspective"}],"materials":[{"pbrMetallicRoughness":{"baseColorFactor":[1.0,1.0,1.0,1.0],"metallicFactor":0.0,"roughnessFactor":1.0}}],"meshes":[{"name":"mesh0","primitives":[{"attributes":{"POSITION":0},"indices":1,"material":0,"mode":4}]}],"nodes":[{"mesh":0,"name":"mesh0"},{"camera":0,"matrix":[1.0,-0.0,0.0,-0.0,-0.0,1.0,-0.0,0.0,0.0,-0.0,1.0,-0.0,-0.0,0.0,1.0,1.0],"name":"Camera Node"},{"children":[0,1],"name":"Renderer Node"}],"scene":0,"scenes":[{"name":"Layer 0","nodes":[2]}]}