{"accessors":[{"bufferView":0,"byteOffset":0,"componentType":5126,"count":2408,"max":[0.016290999948978424,-0.2546530067920685,0.07454200088977814],"min":[0.0011579999700188637,-0.2769570052623749,0.06187700107693672],"type":"VEC3"},{"bufferView":1,"byteOffset":0,"componentType":5125,"count":14436,"type":"SCALAR"}],"asset":{"generator":"VTK","version":"2.0"},"bufferViews":[{"buffer":0,"byteLength":28896,"byteOffset":0,"target":34962},{"buffer":1,"byteLength":57744,"byteOffset":0,"target":34963}],"buffers":[{"byteLength":28896,"uri":"buffer161547.bin"},{"byteLength":57744,"uri":"buffer162600.bin"}],"cameras":[{"perspective":{"aspectRatio":1.3333333333333333,"yfov":0.5235987755982988,"zfar":1000.01,"znear":0.01},"type":"perspective"}],"materials":[{"pbrMetallicRoughness":{"baseColorFactor":[1.0,1.0,1.0,1.0],"metallicFactor":0.0,"roughnessFactor":1.0}}],"meshes":[{"name":"mesh0","primitives":[{"attributes":{"POSITION":0},"indices":1,"material":0,"mode":4}]}],"nodes":[{"mesh":0,"name":"mesh0"},{"camera":0,"matrix":[1.0,-0.0,0.0,-0.0,-0.0,1.0,-0.0,0.0,0.0,-0.0,1.0,-0.0,-0.0,0.0,1.0,1.0],"name":"Camera Node"},{"children":[0,1],"name":"Renderer Node"}],"scene":0,"scenes":[{"name":"Layer 0","nodes":[2]}]}