{"accessors":[{"bufferView":0,"byteOffset":0,"componentType":5126,"count":2627,"max":[0.019370000809431076,-0.25964298844337463,0.0639289990067482],"min":[0.002606000052765012,-0.27687400579452515,0.04936600103974342],"type":"VEC3"},{"bufferView":1,"byteOffset":0,"componentType":5125,"count":15750,"type":"SCALAR"}],"asset":{"generator":"VTK","version":"2.0"},"bufferViews":[{"buffer":0,"byteLength":31524,"byteOffset":0,"target":34962},{"buffer":1,"byteLength":63000,"byteOffset":0,"target":34963}],"buffers":[{"byteLength":31524,"uri":"buffer102125.bin"},{"byteLength":63000,"uri":"buffer103178.bin"}],"cameras":[{"perspective":{"aspectRatio":1.3333333333333333,"yfov":0.5235987755982988,"zfar":1000.01,"znear":0.01},"type":"perspective"}],"materials":[{"pbrMetallicRoughness":{"baseColorFactor":[1.0,1.0,1.0,1.0],"metallicFactor":0.0,"roughnessFactor":1.0}}],"meshes":[{"name":"mesh0","primitives":[{"attributes":{"POSITION":0},"indices":1,"material":0,"mode":4}]}],"nodes":[{"mesh":0,"name":"mesh0"},{"camera":0,"matrix":[1.0,-0.0,0.0,-0.0,-0.0,1.0,-0.0,0.0,0.0,-0.0,1.0,-0.0,-0.0,0.0,1.0,1.0],"name":"Camera Node"},{"children":[0,1],"name":"Renderer Node"}],"scene":0,"scenes":[{"name":"Layer 0","nodes":[2]}]}