{"accessors":[{"bufferView":0,"byteOffset":0,"componentType":5126,"count":2591,"max":[0.013654000125825405,-0.3346729874610901,0.10945700109004974],"min":[0.0029750000685453415,-0.3757529854774475,0.08962000161409378],"type":"VEC3"},{"bufferView":1,"byteOffset":0,"componentType":5125,"count":15534,"type":"SCALAR"}],"asset":{"generator":"VTK","version":"2.0"},"bufferViews":[{"buffer":0,"byteLength":31092,"byteOffset":0,"target":34962},{"buffer":1,"byteLength":62136,"byteOffset":0,"target":34963}],"buffers":[{"byteLength":31092,"uri":"buffer103450.bin"},{"byteLength":62136,"uri":"buffer104503.bin"}],"cameras":[{"perspective":{"aspectRatio":1.3333333333333333,"yfov":0.5235987755982988,"zfar":1000.01,"znear":0.01},"type":"perspective"}],"materials":[{"pbrMetallicRoughness":{"baseColorFactor":[1.0,1.0,1.0,1.0],"metallicFactor":0.0,"roughnessFactor":1.0}}],"meshes":[{"name":"mesh0","primitives":[{"attributes":{"POSITION":0},"indices":1,"material":0,"mode":4}]}],"nodes":[{"mesh":0,"name":"mesh0"},{"camera":0,"matrix":[1.0,-0.0,0.0,-0.0,-0.0,1.0,-0.0,0.0,0.0,-0.0,1.0,-0.0,-0.0,0.0,1.0,1.0],"name":"Camera Node"},{"children":[0,1],"name":"Renderer Node"}],"scene":0,"scenes":[{"name":"Layer 0","nodes":[2]}]}