{"accessors":[{"bufferView":0,"byteOffset":0,"componentType":5126,"count":210,"max":[0.019693000242114067,-0.008743000216782093,0.08923099935054779],"min":[-0.010816999711096287,-0.2504099905490875,0.010890999808907509],"type":"VEC3"},{"bufferView":1,"byteOffset":0,"componentType":5125,"count":1170,"type":"SCALAR"}],"asset":{"generator":"VTK","version":"2.0"},"bufferViews":[{"buffer":0,"byteLength":2520,"byteOffset":0,"target":34962},{"buffer":1,"byteLength":4680,"byteOffset":0,"target":34963}],"buffers":[{"byteLength":2520,"uri":"buffer264331.bin"},{"byteLength":4680,"uri":"buffer265384.bin"}],"cameras":[{"perspective":{"aspectRatio":1.3333333333333333,"yfov":0.5235987755982988,"zfar":1000.01,"znear":0.01},"type":"perspective"}],"materials":[{"pbrMetallicRoughness":{"baseColorFactor":[1.0,1.0,1.0,1.0],"metallicFactor":0.0,"roughnessFactor":1.0}}],"meshes":[{"name":"mesh0","primitives":[{"attributes":{"POSITION":0},"indices":1,"material":0,"mode":4}]}],"nodes":[{"mesh":0,"name":"mesh0"},{"camera":0,"matrix":[1.0,-0.0,0.0,-0.0,-0.0,1.0,-0.0,0.0,0.0,-0.0,1.0,-0.0,-0.0,0.0,1.0,1.0],"name":"Camera Node"},{"children":[0,1],"name":"Renderer Node"}],"scene":0,"scenes":[{"name":"Layer 0","nodes":[2]}]}