{"accessors":[{"bufferView":0,"byteOffset":0,"componentType":5126,"count":309,"max":[0.025735000148415565,0.0234179999679327,0.02637699991464615],"min":[-0.022898999974131584,-0.3028849959373474,-0.043811000883579254],"type":"VEC3"},{"bufferView":1,"byteOffset":0,"componentType":5125,"count":1764,"type":"SCALAR"}],"asset":{"generator":"VTK","version":"2.0"},"bufferViews":[{"buffer":0,"byteLength":3708,"byteOffset":0,"target":34962},{"buffer":1,"byteLength":7056,"byteOffset":0,"target":34963}],"buffers":[{"byteLength":3708,"uri":"buffer349643.bin"},{"byteLength":7056,"uri":"buffer350696.bin"}],"cameras":[{"perspective":{"aspectRatio":1.3333333333333333,"yfov":0.5235987755982988,"zfar":1000.01,"znear":0.01},"type":"perspective"}],"materials":[{"pbrMetallicRoughness":{"baseColorFactor":[1.0,1.0,1.0,1.0],"metallicFactor":0.0,"roughnessFactor":1.0}}],"meshes":[{"name":"mesh0","primitives":[{"attributes":{"POSITION":0},"indices":1,"material":0,"mode":4}]}],"nodes":[{"mesh":0,"name":"mesh0"},{"camera":0,"matrix":[1.0,-0.0,0.0,-0.0,-0.0,1.0,-0.0,0.0,0.0,-0.0,1.0,-0.0,-0.0,0.0,1.0,1.0],"name":"Camera Node"},{"children":[0,1],"name":"Renderer Node"}],"scene":0,"scenes":[{"name":"Layer 0","nodes":[2]}]}