{"accessors":[{"bufferView":0,"byteOffset":0,"componentType":5126,"count":2925,"max":[0.045134998857975006,-0.2670060098171234,0.11619800329208374],"min":[0.015978999435901642,-0.30333200097084045,0.08545099943876266],"type":"VEC3"},{"bufferView":1,"byteOffset":0,"componentType":5125,"count":17538,"type":"SCALAR"}],"asset":{"generator":"VTK","version":"2.0"},"bufferViews":[{"buffer":0,"byteLength":35100,"byteOffset":0,"target":34962},{"buffer":1,"byteLength":70152,"byteOffset":0,"target":34963}],"buffers":[{"byteLength":35100,"uri":"buffer244041.bin"},{"byteLength":70152,"uri":"buffer245094.bin"}],"cameras":[{"perspective":{"aspectRatio":1.3333333333333333,"yfov":0.5235987755982988,"zfar":1000.01,"znear":0.01},"type":"perspective"}],"materials":[{"pbrMetallicRoughness":{"baseColorFactor":[1.0,1.0,1.0,1.0],"metallicFactor":0.0,"roughnessFactor":1.0}}],"meshes":[{"name":"mesh0","primitives":[{"attributes":{"POSITION":0},"indices":1,"material":0,"mode":4}]}],"nodes":[{"mesh":0,"name":"mesh0"},{"camera":0,"matrix":[1.0,-0.0,0.0,-0.0,-0.0,1.0,-0.0,0.0,0.0,-0.0,1.0,-0.0,-0.0,0.0,1.0,1.0],"name":"Camera Node"},{"children":[0,1],"name":"Renderer Node"}],"scene":0,"scenes":[{"name":"Layer 0","nodes":[2]}]}