{"accessors":[{"bufferView":0,"byteOffset":0,"componentType":5126,"count":1434,"max":[0.018742000684142113,-0.2632310092449188,0.08410599827766418],"min":[0.0040350002236664295,-0.2743619978427887,0.07117699831724167],"type":"VEC3"},{"bufferView":1,"byteOffset":0,"componentType":5125,"count":8592,"type":"SCALAR"}],"asset":{"generator":"VTK","version":"2.0"},"bufferViews":[{"buffer":0,"byteLength":17208,"byteOffset":0,"target":34962},{"buffer":1,"byteLength":34368,"byteOffset":0,"target":34963}],"buffers":[{"byteLength":17208,"uri":"buffer119977.bin"},{"byteLength":34368,"uri":"buffer121030.bin"}],"cameras":[{"perspective":{"aspectRatio":1.3333333333333333,"yfov":0.5235987755982988,"zfar":1000.01,"znear":0.01},"type":"perspective"}],"materials":[{"pbrMetallicRoughness":{"baseColorFactor":[1.0,1.0,1.0,1.0],"metallicFactor":0.0,"roughnessFactor":1.0}}],"meshes":[{"name":"mesh0","primitives":[{"attributes":{"POSITION":0},"indices":1,"material":0,"mode":4}]}],"nodes":[{"mesh":0,"name":"mesh0"},{"camera":0,"matrix":[1.0,-0.0,0.0,-0.0,-0.0,1.0,-0.0,0.0,0.0,-0.0,1.0,-0.0,-0.0,0.0,1.0,1.0],"name":"Camera Node"},{"children":[0,1],"name":"Renderer Node"}],"scene":0,"scenes":[{"name":"Layer 0","nodes":[2]}]}