{"accessors":[{"bufferView":0,"byteOffset":0,"componentType":5126,"count":1851,"max":[0.02174600027501583,-0.24665699899196625,0.0826599970459938],"min":[0.00011000000085914508,-0.2629599869251251,0.06813299655914307],"type":"VEC3"},{"bufferView":1,"byteOffset":0,"componentType":5125,"count":11094,"type":"SCALAR"}],"asset":{"generator":"VTK","version":"2.0"},"bufferViews":[{"buffer":0,"byteLength":22212,"byteOffset":0,"target":34962},{"buffer":1,"byteLength":44376,"byteOffset":0,"target":34963}],"buffers":[{"byteLength":22212,"uri":"buffer181872.bin"},{"byteLength":44376,"uri":"buffer182925.bin"}],"cameras":[{"perspective":{"aspectRatio":1.3333333333333333,"yfov":0.5235987755982988,"zfar":1000.01,"znear":0.01},"type":"perspective"}],"materials":[{"pbrMetallicRoughness":{"baseColorFactor":[1.0,1.0,1.0,1.0],"metallicFactor":0.0,"roughnessFactor":1.0}}],"meshes":[{"name":"mesh0","primitives":[{"attributes":{"POSITION":0},"indices":1,"material":0,"mode":4}]}],"nodes":[{"mesh":0,"name":"mesh0"},{"camera":0,"matrix":[1.0,-0.0,0.0,-0.0,-0.0,1.0,-0.0,0.0,0.0,-0.0,1.0,-0.0,-0.0,0.0,1.0,1.0],"name":"Camera Node"},{"children":[0,1],"name":"Renderer Node"}],"scene":0,"scenes":[{"name":"Layer 0","nodes":[2]}]}