{"accessors":[{"bufferView":0,"byteOffset":0,"componentType":5126,"count":1111,"max":[0.012532999739050865,-0.39793699979782104,0.11668600142002106],"min":[0.007590999826788902,-0.4132010042667389,0.10817699879407883],"type":"VEC3"},{"bufferView":1,"byteOffset":0,"componentType":5125,"count":6654,"type":"SCALAR"}],"asset":{"generator":"VTK","version":"2.0"},"bufferViews":[{"buffer":0,"byteLength":13332,"byteOffset":0,"target":34962},{"buffer":1,"byteLength":26616,"byteOffset":0,"target":34963}],"buffers":[{"byteLength":13332,"uri":"buffer219475.bin"},{"byteLength":26616,"uri":"buffer220528.bin"}],"cameras":[{"perspective":{"aspectRatio":1.3333333333333333,"yfov":0.5235987755982988,"zfar":1000.01,"znear":0.01},"type":"perspective"}],"materials":[{"pbrMetallicRoughness":{"baseColorFactor":[1.0,1.0,1.0,1.0],"metallicFactor":0.0,"roughnessFactor":1.0}}],"meshes":[{"name":"mesh0","primitives":[{"attributes":{"POSITION":0},"indices":1,"material":0,"mode":4}]}],"nodes":[{"mesh":0,"name":"mesh0"},{"camera":0,"matrix":[1.0,-0.0,0.0,-0.0,-0.0,1.0,-0.0,0.0,0.0,-0.0,1.0,-0.0,-0.0,0.0,1.0,1.0],"name":"Camera Node"},{"children":[0,1],"name":"Renderer Node"}],"scene":0,"scenes":[{"name":"Layer 0","nodes":[2]}]}