{"accessors":[{"bufferView":0,"byteOffset":0,"componentType":5126,"count":1321,"max":[0.02425600029528141,-0.39821699261665344,0.06623999774456024],"min":[0.018086999654769897,-0.4151900112628937,0.058736998587846756],"type":"VEC3"},{"bufferView":1,"byteOffset":0,"componentType":5125,"count":7914,"type":"SCALAR"}],"asset":{"generator":"VTK","version":"2.0"},"bufferViews":[{"buffer":0,"byteLength":15852,"byteOffset":0,"target":34962},{"buffer":1,"byteLength":31656,"byteOffset":0,"target":34963}],"buffers":[{"byteLength":15852,"uri":"buffer204780.bin"},{"byteLength":31656,"uri":"buffer205833.bin"}],"cameras":[{"perspective":{"aspectRatio":1.3333333333333333,"yfov":0.5235987755982988,"zfar":1000.01,"znear":0.01},"type":"perspective"}],"materials":[{"pbrMetallicRoughness":{"baseColorFactor":[1.0,1.0,1.0,1.0],"metallicFactor":0.0,"roughnessFactor":1.0}}],"meshes":[{"name":"mesh0","primitives":[{"attributes":{"POSITION":0},"indices":1,"material":0,"mode":4}]}],"nodes":[{"mesh":0,"name":"mesh0"},{"camera":0,"matrix":[1.0,-0.0,0.0,-0.0,-0.0,1.0,-0.0,0.0,0.0,-0.0,1.0,-0.0,-0.0,0.0,1.0,1.0],"name":"Camera Node"},{"children":[0,1],"name":"Renderer Node"}],"scene":0,"scenes":[{"name":"Layer 0","nodes":[2]}]}