{"accessors":[{"bufferView":0,"byteOffset":0,"componentType":5126,"count":550,"max":[0.06979899853467941,0.03777800127863884,0.024966999888420105],"min":[-0.007203000131994486,-0.011642999947071075,-0.01594799943268299],"type":"VEC3"},{"bufferView":1,"byteOffset":0,"componentType":5125,"count":3288,"type":"SCALAR"}],"asset":{"generator":"VTK","version":"2.0"},"bufferViews":[{"buffer":0,"byteLength":6600,"byteOffset":0,"target":34962},{"buffer":1,"byteLength":13152,"byteOffset":0,"target":34963}],"buffers":[{"byteLength":6600,"uri":"buffer141193.bin"},{"byteLength":13152,"uri":"buffer142246.bin"}],"cameras":[{"perspective":{"aspectRatio":1.3333333333333333,"yfov":0.5235987755982988,"zfar":1000.01,"znear":0.01},"type":"perspective"}],"materials":[{"pbrMetallicRoughness":{"baseColorFactor":[1.0,1.0,1.0,1.0],"metallicFactor":0.0,"roughnessFactor":1.0}}],"meshes":[{"name":"mesh0","primitives":[{"attributes":{"POSITION":0},"indices":1,"material":0,"mode":4}]}],"nodes":[{"mesh":0,"name":"mesh0"},{"camera":0,"matrix":[1.0,-0.0,0.0,-0.0,-0.0,1.0,-0.0,0.0,0.0,-0.0,1.0,-0.0,-0.0,0.0,1.0,1.0],"name":"Camera Node"},{"children":[0,1],"name":"Renderer Node"}],"scene":0,"scenes":[{"name":"Layer 0","nodes":[2]}]}