{"accessors":[{"bufferView":0,"byteOffset":0,"componentType":5126,"count":310,"max":[0.014990000054240227,0.0077149998396635056,0.04095900058746338],"min":[-0.042546000331640244,-0.010122999548912048,-0.04095900058746338],"type":"VEC3"},{"bufferView":1,"byteOffset":0,"componentType":5125,"count":1860,"type":"SCALAR"}],"asset":{"generator":"VTK","version":"2.0"},"bufferViews":[{"buffer":0,"byteLength":3720,"byteOffset":0,"target":34962},{"buffer":1,"byteLength":7440,"byteOffset":0,"target":34963}],"buffers":[{"byteLength":3720,"uri":"buffer20885.bin"},{"byteLength":7440,"uri":"buffer22067.bin"}],"cameras":[{"perspective":{"aspectRatio":1.3333333333333333,"yfov":0.5235987755982988,"zfar":1000.01,"znear":0.01},"type":"perspective"}],"materials":[{"pbrMetallicRoughness":{"baseColorFactor":[1.0,1.0,1.0,1.0],"metallicFactor":0.0,"roughnessFactor":1.0}}],"meshes":[{"name":"mesh0","primitives":[{"attributes":{"POSITION":0},"indices":1,"material":0,"mode":4}]}],"nodes":[{"mesh":0,"name":"mesh0"},{"camera":0,"matrix":[1.0,-0.0,0.0,-0.0,-0.0,1.0,-0.0,0.0,0.0,-0.0,1.0,-0.0,-0.0,0.0,1.0,1.0],"name":"Camera Node"},{"children":[0,1],"name":"Renderer Node"}],"scene":0,"scenes":[{"name":"Layer 0","nodes":[2]}]}