{"accessors":[{"bufferView":0,"byteOffset":0,"componentType":5126,"count":142,"max":[0.030866000801324844,0.09763400256633759,0.027197999879717827],"min":[-0.027809999883174896,0.06876300275325775,-0.02696000039577484],"type":"VEC3"},{"bufferView":1,"byteOffset":0,"componentType":5125,"count":864,"type":"SCALAR"}],"asset":{"generator":"VTK","version":"2.0"},"bufferViews":[{"buffer":0,"byteLength":1704,"byteOffset":0,"target":34962},{"buffer":1,"byteLength":3456,"byteOffset":0,"target":34963}],"buffers":[{"byteLength":1704,"uri":"buffer11064.bin"},{"byteLength":3456,"uri":"buffer12238.bin"}],"cameras":[{"perspective":{"aspectRatio":1.3333333333333333,"yfov":0.5235987755982988,"zfar":1000.01,"znear":0.01},"type":"perspective"}],"materials":[{"pbrMetallicRoughness":{"baseColorFactor":[1.0,1.0,1.0,1.0],"metallicFactor":0.0,"roughnessFactor":1.0}}],"meshes":[{"name":"mesh0","primitives":[{"attributes":{"POSITION":0},"indices":1,"material":0,"mode":4}]}],"nodes":[{"mesh":0,"name":"mesh0"},{"camera":0,"matrix":[1.0,-0.0,0.0,-0.0,-0.0,1.0,-0.0,0.0,0.0,-0.0,1.0,-0.0,-0.0,0.0,1.0,1.0],"name":"Camera Node"},{"children":[0,1],"name":"Renderer Node"}],"scene":0,"scenes":[{"name":"Layer 0","nodes":[2]}]}