{"accessors":[{"bufferView":0,"byteOffset":0,"componentType":5126,"count":142,"max":[0.016357000917196274,0.02807999961078167,0.0306170005351305],"min":[-0.052060000598430634,0.003386999946087599,-0.030348999425768852],"type":"VEC3"},{"bufferView":1,"byteOffset":0,"componentType":5125,"count":852,"type":"SCALAR"}],"asset":{"generator":"VTK","version":"2.0"},"bufferViews":[{"buffer":0,"byteLength":1704,"byteOffset":0,"target":34962},{"buffer":1,"byteLength":3408,"byteOffset":0,"target":34963}],"buffers":[{"byteLength":1704,"uri":"buffer344094.bin"},{"byteLength":3408,"uri":"buffer345274.bin"}],"cameras":[{"perspective":{"aspectRatio":1.3333333333333333,"yfov":0.5235987755982988,"zfar":1000.01,"znear":0.01},"type":"perspective"}],"materials":[{"pbrMetallicRoughness":{"baseColorFactor":[1.0,1.0,1.0,1.0],"metallicFactor":0.0,"roughnessFactor":1.0}}],"meshes":[{"name":"mesh0","primitives":[{"attributes":{"POSITION":0},"indices":1,"material":0,"mode":4}]}],"nodes":[{"mesh":0,"name":"mesh0"},{"camera":0,"matrix":[1.0,-0.0,0.0,-0.0,-0.0,1.0,-0.0,0.0,0.0,-0.0,1.0,-0.0,-0.0,0.0,1.0,1.0],"name":"Camera Node"},{"children":[0,1],"name":"Renderer Node"}],"scene":0,"scenes":[{"name":"Layer 0","nodes":[2]}]}