{"accessors":[{"bufferView":0,"byteOffset":0,"componentType":5126,"count":264,"max":[0.024702999740839005,0.46273699402809143,-0.017728999257087708],"min":[-0.052285999059677124,0.4111669957637787,-0.1673009991645813],"type":"VEC3"},{"bufferView":1,"byteOffset":0,"componentType":5125,"count":1572,"type":"SCALAR"}],"asset":{"generator":"VTK","version":"2.0"},"bufferViews":[{"buffer":0,"byteLength":3168,"byteOffset":0,"target":34962},{"buffer":1,"byteLength":6288,"byteOffset":0,"target":34963}],"buffers":[{"byteLength":3168,"uri":"buffer76505.bin"},{"byteLength":6288,"uri":"buffer77558.bin"}],"cameras":[{"perspective":{"aspectRatio":1.3333333333333333,"yfov":0.5235987755982988,"zfar":1000.01,"znear":0.01},"type":"perspective"}],"materials":[{"pbrMetallicRoughness":{"baseColorFactor":[1.0,1.0,1.0,1.0],"metallicFactor":0.0,"roughnessFactor":1.0}}],"meshes":[{"name":"mesh0","primitives":[{"attributes":{"POSITION":0},"indices":1,"material":0,"mode":4}]}],"nodes":[{"mesh":0,"name":"mesh0"},{"camera":0,"matrix":[1.0,-0.0,0.0,-0.0,-0.0,1.0,-0.0,0.0,0.0,-0.0,1.0,-0.0,-0.0,0.0,1.0,1.0],"name":"Camera Node"},{"children":[0,1],"name":"Renderer Node"}],"scene":0,"scenes":[{"name":"Layer 0","nodes":[2]}]}