{"accessors":[{"bufferView":0,"byteOffset":0,"componentType":5126,"count":209,"max":[0.09156300127506256,0.02814199961721897,-0.0015180000336840749],"min":[0.06823299825191498,0.008058000355958939,-0.023840000852942467],"type":"VEC3"},{"bufferView":1,"byteOffset":0,"componentType":5125,"count":1242,"type":"SCALAR"}],"asset":{"generator":"VTK","version":"2.0"},"bufferViews":[{"buffer":0,"byteLength":2508,"byteOffset":0,"target":34962},{"buffer":1,"byteLength":4968,"byteOffset":0,"target":34963}],"buffers":[{"byteLength":2508,"uri":"buffer83150.bin"},{"byteLength":4968,"uri":"buffer84203.bin"}],"cameras":[{"perspective":{"aspectRatio":1.3333333333333333,"yfov":0.5235987755982988,"zfar":1000.01,"znear":0.01},"type":"perspective"}],"materials":[{"pbrMetallicRoughness":{"baseColorFactor":[1.0,1.0,1.0,1.0],"metallicFactor":0.0,"roughnessFactor":1.0}}],"meshes":[{"name":"mesh0","primitives":[{"attributes":{"POSITION":0},"indices":1,"material":0,"mode":4}]}],"nodes":[{"mesh":0,"name":"mesh0"},{"camera":0,"matrix":[1.0,-0.0,0.0,-0.0,-0.0,1.0,-0.0,0.0,0.0,-0.0,1.0,-0.0,-0.0,0.0,1.0,1.0],"name":"Camera Node"},{"children":[0,1],"name":"Renderer Node"}],"scene":0,"scenes":[{"name":"Layer 0","nodes":[2]}]}