{"accessors":[{"bufferView":0,"byteOffset":0,"componentType":5126,"count":54,"max":[0.06947900354862213,-0.0021979999728500843,0.015304000116884708],"min":[0.06212199851870537,-0.005634000059217215,0.008526000194251537],"type":"VEC3"},{"bufferView":1,"byteOffset":0,"componentType":5125,"count":312,"type":"SCALAR"}],"asset":{"generator":"VTK","version":"2.0"},"bufferViews":[{"buffer":0,"byteLength":648,"byteOffset":0,"target":34962},{"buffer":1,"byteLength":1248,"byteOffset":0,"target":34963}],"buffers":[{"byteLength":648,"uri":"buffer192622.bin"},{"byteLength":1248,"uri":"buffer193675.bin"}],"cameras":[{"perspective":{"aspectRatio":1.3333333333333333,"yfov":0.5235987755982988,"zfar":1000.01,"znear":0.01},"type":"perspective"}],"materials":[{"pbrMetallicRoughness":{"baseColorFactor":[1.0,1.0,1.0,1.0],"metallicFactor":0.0,"roughnessFactor":1.0}}],"meshes":[{"name":"mesh0","primitives":[{"attributes":{"POSITION":0},"indices":1,"material":0,"mode":4}]}],"nodes":[{"mesh":0,"name":"mesh0"},{"camera":0,"matrix":[1.0,-0.0,0.0,-0.0,-0.0,1.0,-0.0,0.0,0.0,-0.0,1.0,-0.0,-0.0,0.0,1.0,1.0],"name":"Camera Node"},{"children":[0,1],"name":"Renderer Node"}],"scene":0,"scenes":[{"name":"Layer 0","nodes":[2]}]}