{"accessors":[{"bufferView":0,"byteOffset":0,"componentType":5126,"count":46,"max":[0.033298999071121216,-0.0013099999632686377,-0.035218000411987305],"min":[0.02595899999141693,-0.0058639999479055405,-0.04260500147938728],"type":"VEC3"},{"bufferView":1,"byteOffset":0,"componentType":5125,"count":264,"type":"SCALAR"}],"asset":{"generator":"VTK","version":"2.0"},"bufferViews":[{"buffer":0,"byteLength":552,"byteOffset":0,"target":34962},{"buffer":1,"byteLength":1056,"byteOffset":0,"target":34963}],"buffers":[{"byteLength":552,"uri":"buffer77830.bin"},{"byteLength":1056,"uri":"buffer78883.bin"}],"cameras":[{"perspective":{"aspectRatio":1.3333333333333333,"yfov":0.5235987755982988,"zfar":1000.01,"znear":0.01},"type":"perspective"}],"materials":[{"pbrMetallicRoughness":{"baseColorFactor":[1.0,1.0,1.0,1.0],"metallicFactor":0.0,"roughnessFactor":1.0}}],"meshes":[{"name":"mesh0","primitives":[{"attributes":{"POSITION":0},"indices":1,"material":0,"mode":4}]}],"nodes":[{"mesh":0,"name":"mesh0"},{"camera":0,"matrix":[1.0,-0.0,0.0,-0.0,-0.0,1.0,-0.0,0.0,0.0,-0.0,1.0,-0.0,-0.0,0.0,1.0,1.0],"name":"Camera Node"},{"children":[0,1],"name":"Renderer Node"}],"scene":0,"scenes":[{"name":"Layer 0","nodes":[2]}]}