{"accessors":[{"bufferView":0,"byteOffset":0,"componentType":5126,"count":103,"max":[0.0751589983701706,-6.600000051548705e-05,0.02712699957191944],"min":[0.05024399980902672,-0.009871999733150005,0.010471999645233154],"type":"VEC3"},{"bufferView":1,"byteOffset":0,"componentType":5125,"count":606,"type":"SCALAR"}],"asset":{"generator":"VTK","version":"2.0"},"bufferViews":[{"buffer":0,"byteLength":1236,"byteOffset":0,"target":34962},{"buffer":1,"byteLength":2424,"byteOffset":0,"target":34963}],"buffers":[{"byteLength":1236,"uri":"buffer380555.bin"},{"byteLength":2424,"uri":"buffer381608.bin"}],"cameras":[{"perspective":{"aspectRatio":1.3333333333333333,"yfov":0.5235987755982988,"zfar":1000.01,"znear":0.01},"type":"perspective"}],"materials":[{"pbrMetallicRoughness":{"baseColorFactor":[1.0,1.0,1.0,1.0],"metallicFactor":0.0,"roughnessFactor":1.0}}],"meshes":[{"name":"mesh0","primitives":[{"attributes":{"POSITION":0},"indices":1,"material":0,"mode":4}]}],"nodes":[{"mesh":0,"name":"mesh0"},{"camera":0,"matrix":[1.0,-0.0,0.0,-0.0,-0.0,1.0,-0.0,0.0,0.0,-0.0,1.0,-0.0,-0.0,0.0,1.0,1.0],"name":"Camera Node"},{"children":[0,1],"name":"Renderer Node"}],"scene":0,"scenes":[{"name":"Layer 0","nodes":[2]}]}