{"accessors":[{"bufferView":0,"byteOffset":0,"componentType":5126,"count":58,"max":[0.05065400153398514,-0.001505000051110983,0.029841000214219093],"min":[0.04291500151157379,-0.005646999925374985,0.0208320003002882],"type":"VEC3"},{"bufferView":1,"byteOffset":0,"componentType":5125,"count":336,"type":"SCALAR"}],"asset":{"generator":"VTK","version":"2.0"},"bufferViews":[{"buffer":0,"byteLength":696,"byteOffset":0,"target":34962},{"buffer":1,"byteLength":1344,"byteOffset":0,"target":34963}],"buffers":[{"byteLength":696,"uri":"buffer42167.bin"},{"byteLength":1344,"uri":"buffer43220.bin"}],"cameras":[{"perspective":{"aspectRatio":1.3333333333333333,"yfov":0.5235987755982988,"zfar":1000.01,"znear":0.01},"type":"perspective"}],"materials":[{"pbrMetallicRoughness":{"baseColorFactor":[1.0,1.0,1.0,1.0],"metallicFactor":0.0,"roughnessFactor":1.0}}],"meshes":[{"name":"mesh0","primitives":[{"attributes":{"POSITION":0},"indices":1,"material":0,"mode":4}]}],"nodes":[{"mesh":0,"name":"mesh0"},{"camera":0,"matrix":[1.0,-0.0,0.0,-0.0,-0.0,1.0,-0.0,0.0,0.0,-0.0,1.0,-0.0,-0.0,0.0,1.0,1.0],"name":"Camera Node"},{"children":[0,1],"name":"Renderer Node"}],"scene":0,"scenes":[{"name":"Layer 0","nodes":[2]}]}