{"accessors":[{"bufferView":0,"byteOffset":0,"componentType":5126,"count":27,"max":[0.0037529999390244484,-0.003370000049471855,0.006020000204443932],"min":[-0.0033130000811070204,-0.023009000346064568,-0.005040000192821026],"type":"VEC3"},{"bufferView":1,"byteOffset":0,"componentType":5125,"count":150,"type":"SCALAR"}],"asset":{"generator":"VTK","version":"2.0"},"bufferViews":[{"buffer":0,"byteLength":324,"byteOffset":0,"target":34962},{"buffer":1,"byteLength":600,"byteOffset":0,"target":34963}],"buffers":[{"byteLength":324,"uri":"buffer410634.bin"},{"byteLength":600,"uri":"buffer411794.bin"}],"cameras":[{"perspective":{"aspectRatio":1.3333333333333333,"yfov":0.5235987755982988,"zfar":1000.01,"znear":0.01},"type":"perspective"}],"materials":[{"pbrMetallicRoughness":{"baseColorFactor":[1.0,1.0,1.0,1.0],"metallicFactor":0.0,"roughnessFactor":1.0}}],"meshes":[{"name":"mesh0","primitives":[{"attributes":{"POSITION":0},"indices":1,"material":0,"mode":4}]}],"nodes":[{"mesh":0,"name":"mesh0"},{"camera":0,"matrix":[1.0,-0.0,0.0,-0.0,-0.0,1.0,-0.0,0.0,0.0,-0.0,1.0,-0.0,-0.0,0.0,1.0,1.0],"name":"Camera Node"},{"children":[0,1],"name":"Renderer Node"}],"scene":0,"scenes":[{"name":"Layer 0","nodes":[2]}]}