{"accessors":[{"bufferView":0,"byteOffset":0,"componentType":5126,"count":78,"max":[0.004424999933689833,-0.08160900324583054,0.0006270000012591481],"min":[-0.010600999929010868,-0.1336899995803833,-0.01561299990862608],"type":"VEC3"},{"bufferView":1,"byteOffset":0,"componentType":5125,"count":456,"type":"SCALAR"}],"asset":{"generator":"VTK","version":"2.0"},"bufferViews":[{"buffer":0,"byteLength":936,"byteOffset":0,"target":34962},{"buffer":1,"byteLength":1824,"byteOffset":0,"target":34963}],"buffers":[{"byteLength":936,"uri":"buffer69589.bin"},{"byteLength":1824,"uri":"buffer70756.bin"}],"cameras":[{"perspective":{"aspectRatio":1.3333333333333333,"yfov":0.5235987755982988,"zfar":1000.01,"znear":0.01},"type":"perspective"}],"materials":[{"pbrMetallicRoughness":{"baseColorFactor":[1.0,1.0,1.0,1.0],"metallicFactor":0.0,"roughnessFactor":1.0}}],"meshes":[{"name":"mesh0","primitives":[{"attributes":{"POSITION":0},"indices":1,"material":0,"mode":4}]}],"nodes":[{"mesh":0,"name":"mesh0"},{"camera":0,"matrix":[1.0,-0.0,0.0,-0.0,-0.0,1.0,-0.0,0.0,0.0,-0.0,1.0,-0.0,-0.0,0.0,1.0,1.0],"name":"Camera Node"},{"children":[0,1],"name":"Renderer Node"}],"scene":0,"scenes":[{"name":"Layer 0","nodes":[2]}]}