{"accessors":[{"bufferView":0,"byteOffset":0,"componentType":5126,"count":42,"max":[0.0020039998926222324,-0.13651500642299652,0.02948799915611744],"min":[-0.010642999783158302,-0.1701200008392334,0.01603100076317787],"type":"VEC3"},{"bufferView":1,"byteOffset":0,"componentType":5125,"count":240,"type":"SCALAR"}],"asset":{"generator":"VTK","version":"2.0"},"bufferViews":[{"buffer":0,"byteLength":504,"byteOffset":0,"target":34962},{"buffer":1,"byteLength":960,"byteOffset":0,"target":34963}],"buffers":[{"byteLength":504,"uri":"buffer58563.bin"},{"byteLength":960,"uri":"buffer59728.bin"}],"cameras":[{"perspective":{"aspectRatio":1.3333333333333333,"yfov":0.5235987755982988,"zfar":1000.01,"znear":0.01},"type":"perspective"}],"materials":[{"pbrMetallicRoughness":{"baseColorFactor":[1.0,1.0,1.0,1.0],"metallicFactor":0.0,"roughnessFactor":1.0}}],"meshes":[{"name":"mesh0","primitives":[{"attributes":{"POSITION":0},"indices":1,"material":0,"mode":4}]}],"nodes":[{"mesh":0,"name":"mesh0"},{"camera":0,"matrix":[1.0,-0.0,0.0,-0.0,-0.0,1.0,-0.0,0.0,0.0,-0.0,1.0,-0.0,-0.0,0.0,1.0,1.0],"name":"Camera Node"},{"children":[0,1],"name":"Renderer Node"}],"scene":0,"scenes":[{"name":"Layer 0","nodes":[2]}]}