{"accessors":[{"bufferView":0,"byteOffset":0,"componentType":5126,"count":106,"max":[0.004676999989897013,-0.00020399999630171806,0.021474000066518784],"min":[-0.013983000069856644,-0.08515000343322754,-0.003739000065252185],"type":"VEC3"},{"bufferView":1,"byteOffset":0,"componentType":5125,"count":624,"type":"SCALAR"}],"asset":{"generator":"VTK","version":"2.0"},"bufferViews":[{"buffer":0,"byteLength":1272,"byteOffset":0,"target":34962},{"buffer":1,"byteLength":2496,"byteOffset":0,"target":34963}],"buffers":[{"byteLength":1272,"uri":"buffer276513.bin"},{"byteLength":2496,"uri":"buffer277673.bin"}],"cameras":[{"perspective":{"aspectRatio":1.3333333333333333,"yfov":0.5235987755982988,"zfar":1000.01,"znear":0.01},"type":"perspective"}],"materials":[{"pbrMetallicRoughness":{"baseColorFactor":[1.0,1.0,1.0,1.0],"metallicFactor":0.0,"roughnessFactor":1.0}}],"meshes":[{"name":"mesh0","primitives":[{"attributes":{"POSITION":0},"indices":1,"material":0,"mode":4}]}],"nodes":[{"mesh":0,"name":"mesh0"},{"camera":0,"matrix":[1.0,-0.0,0.0,-0.0,-0.0,1.0,-0.0,0.0,0.0,-0.0,1.0,-0.0,-0.0,0.0,1.0,1.0],"name":"Camera Node"},{"children":[0,1],"name":"Renderer Node"}],"scene":0,"scenes":[{"name":"Layer 0","nodes":[2]}]}