{"accessors":[{"bufferView":0,"byteOffset":0,"componentType":5126,"count":27,"max":[0.0007639999967068434,-0.1667180061340332,0.03150700032711029],"min":[-0.006424000021070242,-0.19035199284553528,0.02111399918794632],"type":"VEC3"},{"bufferView":1,"byteOffset":0,"componentType":5125,"count":150,"type":"SCALAR"}],"asset":{"generator":"VTK","version":"2.0"},"bufferViews":[{"buffer":0,"byteLength":324,"byteOffset":0,"target":34962},{"buffer":1,"byteLength":600,"byteOffset":0,"target":34963}],"buffers":[{"byteLength":324,"uri":"buffer84475.bin"},{"byteLength":600,"uri":"buffer85635.bin"}],"cameras":[{"perspective":{"aspectRatio":1.3333333333333333,"yfov":0.5235987755982988,"zfar":1000.01,"znear":0.01},"type":"perspective"}],"materials":[{"pbrMetallicRoughness":{"baseColorFactor":[1.0,1.0,1.0,1.0],"metallicFactor":0.0,"roughnessFactor":1.0}}],"meshes":[{"name":"mesh0","primitives":[{"attributes":{"POSITION":0},"indices":1,"material":0,"mode":4}]}],"nodes":[{"mesh":0,"name":"mesh0"},{"camera":0,"matrix":[1.0,-0.0,0.0,-0.0,-0.0,1.0,-0.0,0.0,0.0,-0.0,1.0,-0.0,-0.0,0.0,1.0,1.0],"name":"Camera Node"},{"children":[0,1],"name":"Renderer Node"}],"scene":0,"scenes":[{"name":"Layer 0","nodes":[2]}]}