{"accessors":[{"bufferView":0,"byteOffset":0,"componentType":5126,"count":49,"max":[0.016959000378847122,-0.0681380033493042,0.06710900366306305],"min":[0.0026809999253600836,-0.09660200029611588,0.052163999527692795],"type":"VEC3"},{"bufferView":1,"byteOffset":0,"componentType":5125,"count":282,"type":"SCALAR"}],"asset":{"generator":"VTK","version":"2.0"},"bufferViews":[{"buffer":0,"byteLength":588,"byteOffset":0,"target":34962},{"buffer":1,"byteLength":1128,"byteOffset":0,"target":34963}],"buffers":[{"byteLength":588,"uri":"buffer414823.bin"},{"byteLength":1128,"uri":"buffer415983.bin"}],"cameras":[{"perspective":{"aspectRatio":1.3333333333333333,"yfov":0.5235987755982988,"zfar":1000.01,"znear":0.01},"type":"perspective"}],"materials":[{"pbrMetallicRoughness":{"baseColorFactor":[1.0,1.0,1.0,1.0],"metallicFactor":0.0,"roughnessFactor":1.0}}],"meshes":[{"name":"mesh0","primitives":[{"attributes":{"POSITION":0},"indices":1,"material":0,"mode":4}]}],"nodes":[{"mesh":0,"name":"mesh0"},{"camera":0,"matrix":[1.0,-0.0,0.0,-0.0,-0.0,1.0,-0.0,0.0,0.0,-0.0,1.0,-0.0,-0.0,0.0,1.0,1.0],"name":"Camera Node"},{"children":[0,1],"name":"Renderer Node"}],"scene":0,"scenes":[{"name":"Layer 0","nodes":[2]}]}