{"accessors":[{"bufferView":0,"byteOffset":0,"componentType":5126,"count":106,"max":[0.00860000029206276,-0.0024759999942034483,0.00011700000322889537],"min":[-0.009298999793827534,-0.0852229967713356,-0.015412000007927418],"type":"VEC3"},{"bufferView":1,"byteOffset":0,"componentType":5125,"count":624,"type":"SCALAR"}],"asset":{"generator":"VTK","version":"2.0"},"bufferViews":[{"buffer":0,"byteLength":1272,"byteOffset":0,"target":34962},{"buffer":1,"byteLength":2496,"byteOffset":0,"target":34963}],"buffers":[{"byteLength":1272,"uri":"buffer158790.bin"},{"byteLength":2496,"uri":"buffer159950.bin"}],"cameras":[{"perspective":{"aspectRatio":1.3333333333333333,"yfov":0.5235987755982988,"zfar":1000.01,"znear":0.01},"type":"perspective"}],"materials":[{"pbrMetallicRoughness":{"baseColorFactor":[1.0,1.0,1.0,1.0],"metallicFactor":0.0,"roughnessFactor":1.0}}],"meshes":[{"name":"mesh0","primitives":[{"attributes":{"POSITION":0},"indices":1,"material":0,"mode":4}]}],"nodes":[{"mesh":0,"name":"mesh0"},{"camera":0,"matrix":[1.0,-0.0,0.0,-0.0,-0.0,1.0,-0.0,0.0,0.0,-0.0,1.0,-0.0,-0.0,0.0,1.0,1.0],"name":"Camera Node"},{"children":[0,1],"name":"Renderer Node"}],"scene":0,"scenes":[{"name":"Layer 0","nodes":[2]}]}