{"accessors":[{"bufferView":0,"byteOffset":0,"componentType":5126,"count":195,"max":[0.12043700367212296,0.030256999656558037,0.033893000334501266],"min":[0.09050700068473816,0.0038640000857412815,0.012662000022828579],"type":"VEC3"},{"bufferView":1,"byteOffset":0,"componentType":5125,"count":1158,"type":"SCALAR"}],"asset":{"generator":"VTK","version":"2.0"},"bufferViews":[{"buffer":0,"byteLength":2340,"byteOffset":0,"target":34962},{"buffer":1,"byteLength":4632,"byteOffset":0,"target":34963}],"buffers":[{"byteLength":2340,"uri":"buffer330336.bin"},{"byteLength":4632,"uri":"buffer331389.bin"}],"cameras":[{"perspective":{"aspectRatio":1.3333333333333333,"yfov":0.5235987755982988,"zfar":1000.01,"znear":0.01},"type":"perspective"}],"materials":[{"pbrMetallicRoughness":{"baseColorFactor":[1.0,1.0,1.0,1.0],"metallicFactor":0.0,"roughnessFactor":1.0}}],"meshes":[{"name":"mesh0","primitives":[{"attributes":{"POSITION":0},"indices":1,"material":0,"mode":4}]}],"nodes":[{"mesh":0,"name":"mesh0"},{"camera":0,"matrix":[1.0,-0.0,0.0,-0.0,-0.0,1.0,-0.0,0.0,0.0,-0.0,1.0,-0.0,-0.0,0.0,1.0,1.0],"name":"Camera Node"},{"children":[0,1],"name":"Renderer Node"}],"scene":0,"scenes":[{"name":"Layer 0","nodes":[2]}]}