{"accessors":[{"bufferView":0,"byteOffset":0,"componentType":5126,"count":5434,"max":[0.010866999626159668,0.13092699646949768,0.03965799883008003],"min":[-0.11820100247859955,-0.3939320147037506,-0.039386000484228134],"type":"VEC3"},{"bufferView":1,"byteOffset":0,"componentType":5125,"count":31920,"type":"SCALAR"}],"asset":{"generator":"VTK","version":"2.0"},"bufferViews":[{"buffer":0,"byteLength":65208,"byteOffset":0,"target":34962},{"buffer":1,"byteLength":127680,"byteOffset":0,"target":34963}],"buffers":[{"byteLength":65208,"uri":"buffer37389.bin"},{"byteLength":127680,"uri":"buffer39245.bin"}],"cameras":[{"perspective":{"aspectRatio":1.3333333333333333,"yfov":0.5235987755982988,"zfar":1000.01,"znear":0.01},"type":"perspective"}],"materials":[{"pbrMetallicRoughness":{"baseColorFactor":[1.0,1.0,1.0,1.0],"metallicFactor":0.0,"roughnessFactor":1.0}}],"meshes":[{"name":"mesh0","primitives":[{"attributes":{"POSITION":0},"indices":1,"material":0,"mode":4}]}],"nodes":[{"mesh":0,"name":"mesh0"},{"camera":0,"matrix":[1.0,-0.0,0.0,-0.0,-0.0,1.0,-0.0,0.0,0.0,-0.0,1.0,-0.0,-0.0,0.0,1.0,1.0],"name":"Camera Node"},{"children":[0,1],"name":"Renderer Node"}],"scene":0,"scenes":[{"name":"Layer 0","nodes":[2]}]}