{"accessors":[{"bufferView":0,"byteOffset":0,"componentType":5126,"count":203,"max":[0.016269000247120857,0.03301199898123741,0.14841799437999725],"min":[-0.033987000584602356,-0.006655000150203705,0.024281000718474388],"type":"VEC3"},{"bufferView":1,"byteOffset":0,"componentType":5125,"count":1194,"type":"SCALAR"}],"asset":{"generator":"VTK","version":"2.0"},"bufferViews":[{"buffer":0,"byteLength":2436,"byteOffset":0,"target":34962},{"buffer":1,"byteLength":4776,"byteOffset":0,"target":34963}],"buffers":[{"byteLength":2436,"uri":"buffer210080.bin"},{"byteLength":4776,"uri":"buffer211133.bin"}],"cameras":[{"perspective":{"aspectRatio":1.3333333333333333,"yfov":0.5235987755982988,"zfar":1000.01,"znear":0.01},"type":"perspective"}],"materials":[{"pbrMetallicRoughness":{"baseColorFactor":[1.0,1.0,1.0,1.0],"metallicFactor":0.0,"roughnessFactor":1.0}}],"meshes":[{"name":"mesh0","primitives":[{"attributes":{"POSITION":0},"indices":1,"material":0,"mode":4}]}],"nodes":[{"mesh":0,"name":"mesh0"},{"camera":0,"matrix":[1.0,-0.0,0.0,-0.0,-0.0,1.0,-0.0,0.0,0.0,-0.0,1.0,-0.0,-0.0,0.0,1.0,1.0],"name":"Camera Node"},{"children":[0,1],"name":"Renderer Node"}],"scene":0,"scenes":[{"name":"Layer 0","nodes":[2]}]}