{"accessors":[{"bufferView":0,"byteOffset":0,"componentType":5126,"count":770,"max":[0.0056870002299547195,0.04250599816441536,0.17097899317741394],"min":[-0.11583700031042099,-0.0980760008096695,0.05521799996495247],"type":"VEC3"},{"bufferView":1,"byteOffset":0,"componentType":5125,"count":4629,"type":"SCALAR"}],"asset":{"generator":"VTK","version":"2.0"},"bufferViews":[{"buffer":0,"byteLength":9240,"byteOffset":0,"target":34962},{"buffer":1,"byteLength":18516,"byteOffset":0,"target":34963}],"buffers":[{"byteLength":9240,"uri":"buffer118542.bin"},{"byteLength":18516,"uri":"buffer119705.bin"}],"cameras":[{"perspective":{"aspectRatio":1.3333333333333333,"yfov":0.5235987755982988,"zfar":1000.01,"znear":0.01},"type":"perspective"}],"materials":[{"pbrMetallicRoughness":{"baseColorFactor":[1.0,1.0,1.0,1.0],"metallicFactor":0.0,"roughnessFactor":1.0}}],"meshes":[{"name":"mesh0","primitives":[{"attributes":{"POSITION":0},"indices":1,"material":0,"mode":4}]}],"nodes":[{"mesh":0,"name":"mesh0"},{"camera":0,"matrix":[1.0,-0.0,0.0,-0.0,-0.0,1.0,-0.0,0.0,0.0,-0.0,1.0,-0.0,-0.0,0.0,1.0,1.0],"name":"Camera Node"},{"children":[0,1],"name":"Renderer Node"}],"scene":0,"scenes":[{"name":"Layer 0","nodes":[2]}]}