{"accessors":[{"bufferView":0,"byteOffset":0,"componentType":5126,"count":4891,"max":[0.10493899881839752,0.41784998774528503,0.1667850911617279],"min":[-0.08782699704170227,0.10810600221157074,-0.1667850911617279],"type":"VEC3"},{"bufferView":1,"byteOffset":0,"componentType":5125,"count":29040,"type":"SCALAR"}],"asset":{"generator":"VTK","version":"2.0"},"bufferViews":[{"buffer":0,"byteLength":58692,"byteOffset":0,"target":34962},{"buffer":1,"byteLength":116160,"byteOffset":0,"target":34963}],"buffers":[{"byteLength":58692,"uri":"buffer289236.bin"},{"byteLength":116160,"uri":"buffer290277.bin"}],"cameras":[{"perspective":{"aspectRatio":1.3333333333333333,"yfov":0.5235987755982988,"zfar":1000.01,"znear":0.01},"type":"perspective"}],"materials":[{"pbrMetallicRoughness":{"baseColorFactor":[1.0,1.0,1.0,1.0],"metallicFactor":0.0,"roughnessFactor":1.0}}],"meshes":[{"name":"mesh0","primitives":[{"attributes":{"POSITION":0},"indices":1,"material":0,"mode":4}]}],"nodes":[{"mesh":0,"name":"mesh0"},{"camera":0,"matrix":[1.0,-0.0,0.0,-0.0,-0.0,1.0,-0.0,0.0,0.0,-0.0,1.0,-0.0,-0.0,0.0,1.0,1.0],"name":"Camera Node"},{"children":[0,1],"name":"Renderer Node"}],"scene":0,"scenes":[{"name":"Layer 0","nodes":[2]}]}