{"accessors":[{"bufferView":0,"byteOffset":0,"componentType":5126,"count":3305,"max":[0.0878010019659996,0.6505650281906128,0.06972900032997131],"min":[-0.08123700320720673,0.4890809953212738,-0.06972900032997131],"type":"VEC3"},{"bufferView":1,"byteOffset":0,"componentType":5125,"count":19776,"type":"SCALAR"}],"asset":{"generator":"VTK","version":"2.0"},"bufferViews":[{"buffer":0,"byteLength":39660,"byteOffset":0,"target":34962},{"buffer":1,"byteLength":79104,"byteOffset":0,"target":34963}],"buffers":[{"byteLength":39660,"uri":"buffer231400.bin"},{"byteLength":79104,"uri":"buffer232878.bin"}],"cameras":[{"perspective":{"aspectRatio":1.3333333333333333,"yfov":0.5235987755982988,"zfar":1000.01,"znear":0.01},"type":"perspective"}],"materials":[{"pbrMetallicRoughness":{"baseColorFactor":[1.0,1.0,1.0,1.0],"metallicFactor":0.0,"roughnessFactor":1.0}}],"meshes":[{"name":"mesh0","primitives":[{"attributes":{"POSITION":0},"indices":1,"material":0,"mode":4}]}],"nodes":[{"mesh":0,"name":"mesh0"},{"camera":0,"matrix":[1.0,-0.0,0.0,-0.0,-0.0,1.0,-0.0,0.0,0.0,-0.0,1.0,-0.0,-0.0,0.0,1.0,1.0],"name":"Camera Node"},{"children":[0,1],"name":"Renderer Node"}],"scene":0,"scenes":[{"name":"Layer 0","nodes":[2]}]}