{"accessors":[{"bufferView":0,"byteOffset":0,"componentType":5126,"count":1459,"max":[0.08206800371408463,0.5431309938430786,0.05389399826526642],"min":[0.007187000010162592,0.4571340084075928,-0.052994001656770706],"type":"VEC3"},{"bufferView":1,"byteOffset":0,"componentType":5125,"count":8748,"type":"SCALAR"}],"asset":{"generator":"VTK","version":"2.0"},"bufferViews":[{"buffer":0,"byteLength":17508,"byteOffset":0,"target":34962},{"buffer":1,"byteLength":34992,"byteOffset":0,"target":34963}],"buffers":[{"byteLength":17508,"uri":"buffer173660.bin"},{"byteLength":34992,"uri":"buffer174868.bin"}],"cameras":[{"perspective":{"aspectRatio":1.3333333333333333,"yfov":0.5235987755982988,"zfar":1000.01,"znear":0.01},"type":"perspective"}],"materials":[{"pbrMetallicRoughness":{"baseColorFactor":[1.0,1.0,1.0,1.0],"metallicFactor":0.0,"roughnessFactor":1.0}}],"meshes":[{"name":"mesh0","primitives":[{"attributes":{"POSITION":0},"indices":1,"material":0,"mode":4}]}],"nodes":[{"mesh":0,"name":"mesh0"},{"camera":0,"matrix":[1.0,-0.0,0.0,-0.0,-0.0,1.0,-0.0,0.0,0.0,-0.0,1.0,-0.0,-0.0,0.0,1.0,1.0],"name":"Camera Node"},{"children":[0,1],"name":"Renderer Node"}],"scene":0,"scenes":[{"name":"Layer 0","nodes":[2]}]}