{"accessors":[{"bufferView":0,"byteOffset":0,"componentType":5126,"count":127,"max":[0.05777899920940399,-0.15684400498867035,-0.008725999854505062],"min":[0.04161899909377098,-0.16490299999713898,-0.019677000120282173],"type":"VEC3"},{"bufferView":1,"byteOffset":0,"componentType":5125,"count":750,"type":"SCALAR"}],"asset":{"generator":"VTK","version":"2.0"},"bufferViews":[{"buffer":0,"byteLength":1524,"byteOffset":0,"target":34962},{"buffer":1,"byteLength":3000,"byteOffset":0,"target":34963}],"buffers":[{"byteLength":1524,"uri":"buffer136787.bin"},{"byteLength":3000,"uri":"buffer137840.bin"}],"cameras":[{"perspective":{"aspectRatio":1.3333333333333333,"yfov":0.5235987755982988,"zfar":1000.01,"znear":0.01},"type":"perspective"}],"materials":[{"pbrMetallicRoughness":{"baseColorFactor":[1.0,1.0,1.0,1.0],"metallicFactor":0.0,"roughnessFactor":1.0}}],"meshes":[{"name":"mesh0","primitives":[{"attributes":{"POSITION":0},"indices":1,"material":0,"mode":4}]}],"nodes":[{"mesh":0,"name":"mesh0"},{"camera":0,"matrix":[1.0,-0.0,0.0,-0.0,-0.0,1.0,-0.0,0.0,0.0,-0.0,1.0,-0.0,-0.0,0.0,1.0,1.0],"name":"Camera Node"},{"children":[0,1],"name":"Renderer Node"}],"scene":0,"scenes":[{"name":"Layer 0","nodes":[2]}]}