{"accessors":[{"bufferView":0,"byteOffset":0,"componentType":5126,"count":134,"max":[0.043441999703645706,-0.13914600014686584,-0.010231999680399895],"min":[0.021865999326109886,-0.16088099777698517,-0.02574699930846691],"type":"VEC3"},{"bufferView":1,"byteOffset":0,"componentType":5125,"count":792,"type":"SCALAR"}],"asset":{"generator":"VTK","version":"2.0"},"bufferViews":[{"buffer":0,"byteLength":1608,"byteOffset":0,"target":34962},{"buffer":1,"byteLength":3168,"byteOffset":0,"target":34963}],"buffers":[{"byteLength":1608,"uri":"buffer316373.bin"},{"byteLength":3168,"uri":"buffer317426.bin"}],"cameras":[{"perspective":{"aspectRatio":1.3333333333333333,"yfov":0.5235987755982988,"zfar":1000.01,"znear":0.01},"type":"perspective"}],"materials":[{"pbrMetallicRoughness":{"baseColorFactor":[1.0,1.0,1.0,1.0],"metallicFactor":0.0,"roughnessFactor":1.0}}],"meshes":[{"name":"mesh0","primitives":[{"attributes":{"POSITION":0},"indices":1,"material":0,"mode":4}]}],"nodes":[{"mesh":0,"name":"mesh0"},{"camera":0,"matrix":[1.0,-0.0,0.0,-0.0,-0.0,1.0,-0.0,0.0,0.0,-0.0,1.0,-0.0,-0.0,0.0,1.0,1.0],"name":"Camera Node"},{"children":[0,1],"name":"Renderer Node"}],"scene":0,"scenes":[{"name":"Layer 0","nodes":[2]}]}