{"accessors":[{"bufferView":0,"byteOffset":0,"componentType":5126,"count":1458,"max":[0.11723600327968597,0.15466199815273285,0.06175699830055237],"min":[0.030706999823451042,0.05528799816966057,-0.06175699830055237],"type":"VEC3"},{"bufferView":1,"byteOffset":0,"componentType":5125,"count":8736,"type":"SCALAR"}],"asset":{"generator":"VTK","version":"2.0"},"bufferViews":[{"buffer":0,"byteLength":17496,"byteOffset":0,"target":34962},{"buffer":1,"byteLength":34944,"byteOffset":0,"target":34963}],"buffers":[{"byteLength":17496,"uri":"buffer155985.bin"},{"byteLength":34944,"uri":"buffer157193.bin"}],"cameras":[{"perspective":{"aspectRatio":1.3333333333333333,"yfov":0.5235987755982988,"zfar":1000.01,"znear":0.01},"type":"perspective"}],"materials":[{"pbrMetallicRoughness":{"baseColorFactor":[1.0,1.0,1.0,1.0],"metallicFactor":0.0,"roughnessFactor":1.0}}],"meshes":[{"name":"mesh0","primitives":[{"attributes":{"POSITION":0},"indices":1,"material":0,"mode":4}]}],"nodes":[{"mesh":0,"name":"mesh0"},{"camera":0,"matrix":[1.0,-0.0,0.0,-0.0,-0.0,1.0,-0.0,0.0,0.0,-0.0,1.0,-0.0,-0.0,0.0,1.0,1.0],"name":"Camera Node"},{"children":[0,1],"name":"Renderer Node"}],"scene":0,"scenes":[{"name":"Layer 0","nodes":[2]}]}