{"accessors":[{"bufferView":0,"byteOffset":0,"componentType":5126,"count":456,"max":[0.03544599935412407,0.02233099937438965,0.038297999650239944],"min":[-0.036938998848199844,-0.4302850067615509,-0.06196900084614754],"type":"VEC3"},{"bufferView":1,"byteOffset":0,"componentType":5125,"count":2724,"type":"SCALAR"}],"asset":{"generator":"VTK","version":"2.0"},"bufferViews":[{"buffer":0,"byteLength":5472,"byteOffset":0,"target":34962},{"buffer":1,"byteLength":10896,"byteOffset":0,"target":34963}],"buffers":[{"byteLength":5472,"uri":"buffer172335.bin"},{"byteLength":10896,"uri":"buffer173388.bin"}],"cameras":[{"perspective":{"aspectRatio":1.3333333333333333,"yfov":0.5235987755982988,"zfar":1000.01,"znear":0.01},"type":"perspective"}],"materials":[{"pbrMetallicRoughness":{"baseColorFactor":[1.0,1.0,1.0,1.0],"metallicFactor":0.0,"roughnessFactor":1.0}}],"meshes":[{"name":"mesh0","primitives":[{"attributes":{"POSITION":0},"indices":1,"material":0,"mode":4}]}],"nodes":[{"mesh":0,"name":"mesh0"},{"camera":0,"matrix":[1.0,-0.0,0.0,-0.0,-0.0,1.0,-0.0,0.0,0.0,-0.0,1.0,-0.0,-0.0,0.0,1.0,1.0],"name":"Camera Node"},{"children":[0,1],"name":"Renderer Node"}],"scene":0,"scenes":[{"name":"Layer 0","nodes":[2]}]}