{"accessors":[{"bufferView":0,"byteOffset":0,"componentType":5126,"count":1545,"max":[-0.21284300088882446,-0.2025340050458908,0.04268600046634674],"min":[-0.24854999780654907,-0.3859789967536926,-0.06775300204753876],"type":"VEC3"},{"bufferView":1,"byteOffset":0,"componentType":5125,"count":8934,"type":"SCALAR"}],"asset":{"generator":"VTK","version":"2.0"},"bufferViews":[{"buffer":0,"byteLength":18540,"byteOffset":0,"target":34962},{"buffer":1,"byteLength":35736,"byteOffset":0,"target":34963}],"buffers":[{"byteLength":18540,"uri":"buffer73678.bin"},{"byteLength":35736,"uri":"buffer74908.bin"}],"cameras":[{"perspective":{"aspectRatio":1.3333333333333333,"yfov":0.5235987755982988,"zfar":1000.01,"znear":0.01},"type":"perspective"}],"materials":[{"pbrMetallicRoughness":{"baseColorFactor":[1.0,1.0,1.0,1.0],"metallicFactor":0.0,"roughnessFactor":1.0}}],"meshes":[{"name":"mesh0","primitives":[{"attributes":{"POSITION":0},"indices":1,"material":0,"mode":4}]}],"nodes":[{"mesh":0,"name":"mesh0"},{"camera":0,"matrix":[1.0,-0.0,0.0,-0.0,-0.0,1.0,-0.0,0.0,0.0,-0.0,1.0,-0.0,-0.0,0.0,1.0,1.0],"name":"Camera Node"},{"children":[0,1],"name":"Renderer Node"}],"scene":0,"scenes":[{"name":"Layer 0","nodes":[2]}]}