{"accessors":[{"bufferView":0,"byteOffset":0,"componentType":5126,"count":340,"max":[0.027626000344753265,0.018391000106930733,0.02733599953353405],"min":[-0.01776699908077717,-0.28900501132011414,-0.07070799916982651],"type":"VEC3"},{"bufferView":1,"byteOffset":0,"componentType":5125,"count":2025,"type":"SCALAR"}],"asset":{"generator":"VTK","version":"2.0"},"bufferViews":[{"buffer":0,"byteLength":4080,"byteOffset":0,"target":34962},{"buffer":1,"byteLength":8100,"byteOffset":0,"target":34963}],"buffers":[{"byteLength":4080,"uri":"buffer91348.bin"},{"byteLength":8100,"uri":"buffer92401.bin"}],"cameras":[{"perspective":{"aspectRatio":1.3333333333333333,"yfov":0.5235987755982988,"zfar":1000.01,"znear":0.01},"type":"perspective"}],"materials":[{"pbrMetallicRoughness":{"baseColorFactor":[1.0,1.0,1.0,1.0],"metallicFactor":0.0,"roughnessFactor":1.0}}],"meshes":[{"name":"mesh0","primitives":[{"attributes":{"POSITION":0},"indices":1,"material":0,"mode":4}]}],"nodes":[{"mesh":0,"name":"mesh0"},{"camera":0,"matrix":[1.0,-0.0,0.0,-0.0,-0.0,1.0,-0.0,0.0,0.0,-0.0,1.0,-0.0,-0.0,0.0,1.0,1.0],"name":"Camera Node"},{"children":[0,1],"name":"Renderer Node"}],"scene":0,"scenes":[{"name":"Layer 0","nodes":[2]}]}