{"accessors":[{"bufferView":0,"byteOffset":0,"componentType":5126,"count":72,"max":[0.015406999737024307,0.05291999876499176,0.024708999320864677],"min":[-0.010738000273704529,0.0,-0.026673000305891037],"type":"VEC3"},{"bufferView":1,"byteOffset":0,"componentType":5125,"count":420,"type":"SCALAR"}],"asset":{"generator":"VTK","version":"2.0"},"bufferViews":[{"buffer":0,"byteLength":864,"byteOffset":0,"target":34962},{"buffer":1,"byteLength":1680,"byteOffset":0,"target":34963}],"buffers":[{"byteLength":864,"uri":"buffer394089.bin"},{"byteLength":1680,"uri":"buffer395249.bin"}],"cameras":[{"perspective":{"aspectRatio":1.3333333333333333,"yfov":0.5235987755982988,"zfar":1000.01,"znear":0.01},"type":"perspective"}],"materials":[{"pbrMetallicRoughness":{"baseColorFactor":[1.0,1.0,1.0,1.0],"metallicFactor":0.0,"roughnessFactor":1.0}}],"meshes":[{"name":"mesh0","primitives":[{"attributes":{"POSITION":0},"indices":1,"material":0,"mode":4}]}],"nodes":[{"mesh":0,"name":"mesh0"},{"camera":0,"matrix":[1.0,-0.0,0.0,-0.0,-0.0,1.0,-0.0,0.0,0.0,-0.0,1.0,-0.0,-0.0,0.0,1.0,1.0],"name":"Camera Node"},{"children":[0,1],"name":"Renderer Node"}],"scene":0,"scenes":[{"name":"Layer 0","nodes":[2]}]}