{"accessors":[{"bufferView":0,"byteOffset":0,"componentType":5126,"count":180,"max":[0.012703999876976013,0.004282000008970499,0.01001999992877245],"min":[-0.01735600084066391,-0.2208320051431656,-0.07609199732542038],"type":"VEC3"},{"bufferView":1,"byteOffset":0,"componentType":5125,"count":1065,"type":"SCALAR"}],"asset":{"generator":"VTK","version":"2.0"},"bufferViews":[{"buffer":0,"byteLength":2160,"byteOffset":0,"target":34962},{"buffer":1,"byteLength":4260,"byteOffset":0,"target":34963}],"buffers":[{"byteLength":2160,"uri":"buffer375148.bin"},{"byteLength":4260,"uri":"buffer376201.bin"}],"cameras":[{"perspective":{"aspectRatio":1.3333333333333333,"yfov":0.5235987755982988,"zfar":1000.01,"znear":0.01},"type":"perspective"}],"materials":[{"pbrMetallicRoughness":{"baseColorFactor":[1.0,1.0,1.0,1.0],"metallicFactor":0.0,"roughnessFactor":1.0}}],"meshes":[{"name":"mesh0","primitives":[{"attributes":{"POSITION":0},"indices":1,"material":0,"mode":4}]}],"nodes":[{"mesh":0,"name":"mesh0"},{"camera":0,"matrix":[1.0,-0.0,0.0,-0.0,-0.0,1.0,-0.0,0.0,0.0,-0.0,1.0,-0.0,-0.0,0.0,1.0,1.0],"name":"Camera Node"},{"children":[0,1],"name":"Renderer Node"}],"scene":0,"scenes":[{"name":"Layer 0","nodes":[2]}]}