{"accessors":[{"bufferView":0,"byteOffset":0,"componentType":5126,"count":186,"max":[0.02761399932205677,-0.017937999218702316,0.03064199909567833],"min":[-0.02989800088107586,-0.3939709961414337,-0.03822699934244156],"type":"VEC3"},{"bufferView":1,"byteOffset":0,"componentType":5125,"count":1170,"type":"SCALAR"}],"asset":{"generator":"VTK","version":"2.0"},"bufferViews":[{"buffer":0,"byteLength":2232,"byteOffset":0,"target":34962},{"buffer":1,"byteLength":4680,"byteOffset":0,"target":34963}],"buffers":[{"byteLength":2232,"uri":"buffer329011.bin"},{"byteLength":4680,"uri":"buffer330064.bin"}],"cameras":[{"perspective":{"aspectRatio":1.3333333333333333,"yfov":0.5235987755982988,"zfar":1000.01,"znear":0.01},"type":"perspective"}],"materials":[{"pbrMetallicRoughness":{"baseColorFactor":[1.0,1.0,1.0,1.0],"metallicFactor":0.0,"roughnessFactor":1.0}}],"meshes":[{"name":"mesh0","primitives":[{"attributes":{"POSITION":0},"indices":1,"material":0,"mode":4}]}],"nodes":[{"mesh":0,"name":"mesh0"},{"camera":0,"matrix":[1.0,-0.0,0.0,-0.0,-0.0,1.0,-0.0,0.0,0.0,-0.0,1.0,-0.0,-0.0,0.0,1.0,1.0],"name":"Camera Node"},{"children":[0,1],"name":"Renderer Node"}],"scene":0,"scenes":[{"name":"Layer 0","nodes":[2]}]}