{"accessors":[{"bufferView":0,"byteOffset":0,"componentType":5126,"count":7,"max":[0.5,0.0,0.0],"min":[-0.5,0.0,0.0],"type":"VEC3"},{"bufferView":1,"byteOffset":0,"componentType":5126,"count":7,"normalized":false,"type":"VEC2"},{"bufferView":2,"byteOffset":0,"componentType":5125,"count":12,"type":"SCALAR"}],"asset":{"generator":"VTK","version":"2.0"},"bufferViews":[{"buffer":0,"byteLength":84,"byteOffset":0,"target":34962},{"buffer":1,"byteLength":56,"byteOffset":0,"target":34962},{"buffer":2,"byteLength":48,"byteOffset":0,"target":34963}],"buffers":[{"byteLength":84,"uri":"buffer239945.bin"},{"byteLength":56,"uri":"buffer239940.bin"},{"byteLength":48,"uri":"buffer240985.bin"}],"cameras":[{"perspective":{"aspectRatio":1.3333333333333333,"yfov":0.5235987755982988,"zfar":1000.01,"znear":0.01},"type":"perspective"}],"materials":[{"pbrMetallicRoughness":{"baseColorFactor":[1.0,1.0,1.0,1.0],"metallicFactor":0.0,"roughnessFactor":1.0}}],"meshes":[{"name":"mesh0","primitives":[{"attributes":{"POSITION":0,"TEXCOORD_0":1},"indices":2,"material":0,"mode":1}]}],"nodes":[{"mesh":0,"name":"mesh0"},{"camera":0,"matrix":[1.0,-0.0,0.0,-0.0,-0.0,1.0,-0.0,0.0,0.0,-0.0,1.0,-0.0,-0.0,0.0,1.0,1.0],"name":"Camera Node"},{"children":[0,1],"name":"Renderer Node"}],"scene":0,"scenes":[{"name":"Layer 0","nodes":[2]}]}