{"accessors":[{"bufferView":0,"byteOffset":0,"componentType":5126,"count":1948,"max":[0.049935825169086456,0.5499358177185059,0.05000000074505806],"min":[-0.049935825169086456,-0.049935825169086456,-0.05000000074505806],"type":"VEC3"},{"bufferView":1,"byteOffset":0,"componentType":5125,"count":11556,"type":"SCALAR"}],"asset":{"generator":"VTK","version":"2.0"},"bufferViews":[{"buffer":0,"byteLength":23376,"byteOffset":0,"target":34962},{"buffer":1,"byteLength":46224,"byteOffset":0,"target":34963}],"buffers":[{"byteLength":23376,"uri":"buffer107579.bin"},{"byteLength":46224,"uri":"buffer108735.bin"}],"cameras":[{"perspective":{"aspectRatio":1.3333333333333333,"yfov":0.5235987755982988,"zfar":1000.01,"znear":0.01},"type":"perspective"}],"materials":[{"pbrMetallicRoughness":{"baseColorFactor":[1.0,1.0,1.0,1.0],"metallicFactor":0.0,"roughnessFactor":1.0}}],"meshes":[{"name":"mesh0","primitives":[{"attributes":{"POSITION":0},"indices":1,"material":0,"mode":4}]}],"nodes":[{"mesh":0,"name":"mesh0"},{"camera":0,"matrix":[1.0,-0.0,0.0,-0.0,-0.0,1.0,-0.0,0.0,0.0,-0.0,1.0,-0.0,-0.0,0.0,1.0,1.0],"name":"Camera Node"},{"children":[0,1],"name":"Renderer Node"}],"scene":0,"scenes":[{"name":"Layer 0","nodes":[2]}]}