{"accessors":[{"bufferView":0,"byteOffset":0,"componentType":5126,"count":120,"max":[0.03521899878978729,-0.11615800112485886,0.051906999200582504],"min":[0.016457999125123024,-0.13343000411987305,0.03936399891972542],"type":"VEC3"},{"bufferView":1,"byteOffset":0,"componentType":5125,"count":708,"type":"SCALAR"}],"asset":{"generator":"VTK","version":"2.0"},"bufferViews":[{"buffer":0,"byteLength":1440,"byteOffset":0,"target":34962},{"buffer":1,"byteLength":2832,"byteOffset":0,"target":34963}],"buffers":[{"byteLength":1440,"uri":"buffer320470.bin"},{"byteLength":2832,"uri":"buffer321523.bin"}],"cameras":[{"perspective":{"aspectRatio":1.3333333333333333,"yfov":0.5235987755982988,"zfar":1000.01,"znear":0.01},"type":"perspective"}],"materials":[{"pbrMetallicRoughness":{"baseColorFactor":[1.0,1.0,1.0,1.0],"metallicFactor":0.0,"roughnessFactor":1.0}}],"meshes":[{"name":"mesh0","primitives":[{"attributes":{"POSITION":0},"indices":1,"material":0,"mode":4}]}],"nodes":[{"mesh":0,"name":"mesh0"},{"camera":0,"matrix":[1.0,-0.0,0.0,-0.0,-0.0,1.0,-0.0,0.0,0.0,-0.0,1.0,-0.0,-0.0,0.0,1.0,1.0],"name":"Camera Node"},{"children":[0,1],"name":"Renderer Node"}],"scene":0,"scenes":[{"name":"Layer 0","nodes":[2]}]}