{"accessors":[{"bufferView":0,"byteOffset":0,"componentType":5126,"count":159,"max":[0.04918200150132179,-0.12955200672149658,0.05323600023984909],"min":[0.03348600119352341,-0.13832299411296844,0.04393500089645386],"type":"VEC3"},{"bufferView":1,"byteOffset":0,"componentType":5125,"count":948,"type":"SCALAR"}],"asset":{"generator":"VTK","version":"2.0"},"bufferViews":[{"buffer":0,"byteLength":1908,"byteOffset":0,"target":34962},{"buffer":1,"byteLength":3792,"byteOffset":0,"target":34963}],"buffers":[{"byteLength":1908,"uri":"buffer106221.bin"},{"byteLength":3792,"uri":"buffer107274.bin"}],"cameras":[{"perspective":{"aspectRatio":1.3333333333333333,"yfov":0.5235987755982988,"zfar":1000.01,"znear":0.01},"type":"perspective"}],"materials":[{"pbrMetallicRoughness":{"baseColorFactor":[1.0,1.0,1.0,1.0],"metallicFactor":0.0,"roughnessFactor":1.0}}],"meshes":[{"name":"mesh0","primitives":[{"attributes":{"POSITION":0},"indices":1,"material":0,"mode":4}]}],"nodes":[{"mesh":0,"name":"mesh0"},{"camera":0,"matrix":[1.0,-0.0,0.0,-0.0,-0.0,1.0,-0.0,0.0,0.0,-0.0,1.0,-0.0,-0.0,0.0,1.0,1.0],"name":"Camera Node"},{"children":[0,1],"name":"Renderer Node"}],"scene":0,"scenes":[{"name":"Layer 0","nodes":[2]}]}