{"accessors":[{"bufferView":0,"byteOffset":0,"componentType":5126,"count":212,"max":[0.022456999868154526,0.04344800114631653,0.03732600063085556],"min":[-0.05531900003552437,-0.0019239999819546938,-0.03732600063085556],"type":"VEC3"},{"bufferView":1,"byteOffset":0,"componentType":5125,"count":1272,"type":"SCALAR"}],"asset":{"generator":"VTK","version":"2.0"},"bufferViews":[{"buffer":0,"byteLength":2544,"byteOffset":0,"target":34962},{"buffer":1,"byteLength":5088,"byteOffset":0,"target":34963}],"buffers":[{"byteLength":2544,"uri":"buffer399747.bin"},{"byteLength":5088,"uri":"buffer400800.bin"}],"cameras":[{"perspective":{"aspectRatio":1.3333333333333333,"yfov":0.5235987755982988,"zfar":1000.01,"znear":0.01},"type":"perspective"}],"materials":[{"pbrMetallicRoughness":{"baseColorFactor":[1.0,1.0,1.0,1.0],"metallicFactor":0.0,"roughnessFactor":1.0}}],"meshes":[{"name":"mesh0","primitives":[{"attributes":{"POSITION":0},"indices":1,"material":0,"mode":4}]}],"nodes":[{"mesh":0,"name":"mesh0"},{"camera":0,"matrix":[1.0,-0.0,0.0,-0.0,-0.0,1.0,-0.0,0.0,0.0,-0.0,1.0,-0.0,-0.0,0.0,1.0,1.0],"name":"Camera Node"},{"children":[0,1],"name":"Renderer Node"}],"scene":0,"scenes":[{"name":"Layer 0","nodes":[2]}]}