{"accessors":[{"bufferView":0,"byteOffset":0,"componentType":5126,"count":227,"max":[0.01131999958306551,-0.028839999809861183,-0.003358999965712428],"min":[-0.01133199967443943,-0.10196200013160706,-0.027888000011444092],"type":"VEC3"},{"bufferView":1,"byteOffset":0,"componentType":5125,"count":1344,"type":"SCALAR"}],"asset":{"generator":"VTK","version":"2.0"},"bufferViews":[{"buffer":0,"byteLength":2724,"byteOffset":0,"target":34962},{"buffer":1,"byteLength":5376,"byteOffset":0,"target":34963}],"buffers":[{"byteLength":2724,"uri":"buffer357593.bin"},{"byteLength":5376,"uri":"buffer358646.bin"}],"cameras":[{"perspective":{"aspectRatio":1.3333333333333333,"yfov":0.5235987755982988,"zfar":1000.01,"znear":0.01},"type":"perspective"}],"materials":[{"pbrMetallicRoughness":{"baseColorFactor":[1.0,1.0,1.0,1.0],"metallicFactor":0.0,"roughnessFactor":1.0}}],"meshes":[{"name":"mesh0","primitives":[{"attributes":{"POSITION":0},"indices":1,"material":0,"mode":4}]}],"nodes":[{"mesh":0,"name":"mesh0"},{"camera":0,"matrix":[1.0,-0.0,0.0,-0.0,-0.0,1.0,-0.0,0.0,0.0,-0.0,1.0,-0.0,-0.0,0.0,1.0,1.0],"name":"Camera Node"},{"children":[0,1],"name":"Renderer Node"}],"scene":0,"scenes":[{"name":"Layer 0","nodes":[2]}]}