{"accessors":[{"bufferView":0,"byteOffset":0,"componentType":5126,"count":382,"max":[0.180976003408432,0.028026999905705452,-0.011026999913156033],"min":[0.11682499945163727,-0.006188000086694956,-0.03584799915552139],"type":"VEC3"},{"bufferView":1,"byteOffset":0,"componentType":5125,"count":2280,"type":"SCALAR"}],"asset":{"generator":"VTK","version":"2.0"},"bufferViews":[{"buffer":0,"byteLength":4584,"byteOffset":0,"target":34962},{"buffer":1,"byteLength":9120,"byteOffset":0,"target":34963}],"buffers":[{"byteLength":4584,"uri":"buffer191297.bin"},{"byteLength":9120,"uri":"buffer192350.bin"}],"cameras":[{"perspective":{"aspectRatio":1.3333333333333333,"yfov":0.5235987755982988,"zfar":1000.01,"znear":0.01},"type":"perspective"}],"materials":[{"pbrMetallicRoughness":{"baseColorFactor":[1.0,1.0,1.0,1.0],"metallicFactor":0.0,"roughnessFactor":1.0}}],"meshes":[{"name":"mesh0","primitives":[{"attributes":{"POSITION":0},"indices":1,"material":0,"mode":4}]}],"nodes":[{"mesh":0,"name":"mesh0"},{"camera":0,"matrix":[1.0,-0.0,0.0,-0.0,-0.0,1.0,-0.0,0.0,0.0,-0.0,1.0,-0.0,-0.0,0.0,1.0,1.0],"name":"Camera Node"},{"children":[0,1],"name":"Renderer Node"}],"scene":0,"scenes":[{"name":"Layer 0","nodes":[2]}]}