{"accessors":[{"bufferView":0,"byteOffset":0,"componentType":5126,"count":320,"max":[0.007895000278949738,-0.025836000218987465,0.009503999724984169],"min":[-0.0191079992800951,-0.10354799777269363,-0.00964299961924553],"type":"VEC3"},{"bufferView":1,"byteOffset":0,"componentType":5125,"count":1908,"type":"SCALAR"}],"asset":{"generator":"VTK","version":"2.0"},"bufferViews":[{"buffer":0,"byteLength":3840,"byteOffset":0,"target":34962},{"buffer":1,"byteLength":7632,"byteOffset":0,"target":34963}],"buffers":[{"byteLength":3840,"uri":"buffer18235.bin"},{"byteLength":7632,"uri":"buffer19288.bin"}],"cameras":[{"perspective":{"aspectRatio":1.3333333333333333,"yfov":0.5235987755982988,"zfar":1000.01,"znear":0.01},"type":"perspective"}],"materials":[{"pbrMetallicRoughness":{"baseColorFactor":[1.0,1.0,1.0,1.0],"metallicFactor":0.0,"roughnessFactor":1.0}}],"meshes":[{"name":"mesh0","primitives":[{"attributes":{"POSITION":0},"indices":1,"material":0,"mode":4}]}],"nodes":[{"mesh":0,"name":"mesh0"},{"camera":0,"matrix":[1.0,-0.0,0.0,-0.0,-0.0,1.0,-0.0,0.0,0.0,-0.0,1.0,-0.0,-0.0,0.0,1.0,1.0],"name":"Camera Node"},{"children":[0,1],"name":"Renderer Node"}],"scene":0,"scenes":[{"name":"Layer 0","nodes":[2]}]}