{"accessors":[{"bufferView":0,"byteOffset":0,"componentType":5126,"count":69,"max":[0.16447199881076813,0.029364999383687973,0.018021000549197197],"min":[0.09991700202226639,-0.006523999851197004,0.004182000178843737],"type":"VEC3"},{"bufferView":1,"byteOffset":0,"componentType":5125,"count":402,"type":"SCALAR"}],"asset":{"generator":"VTK","version":"2.0"},"bufferViews":[{"buffer":0,"byteLength":828,"byteOffset":0,"target":34962},{"buffer":1,"byteLength":1608,"byteOffset":0,"target":34963}],"buffers":[{"byteLength":828,"uri":"buffer164197.bin"},{"byteLength":1608,"uri":"buffer165250.bin"}],"cameras":[{"perspective":{"aspectRatio":1.3333333333333333,"yfov":0.5235987755982988,"zfar":1000.01,"znear":0.01},"type":"perspective"}],"materials":[{"pbrMetallicRoughness":{"baseColorFactor":[1.0,1.0,1.0,1.0],"metallicFactor":0.0,"roughnessFactor":1.0}}],"meshes":[{"name":"mesh0","primitives":[{"attributes":{"POSITION":0},"indices":1,"material":0,"mode":4}]}],"nodes":[{"mesh":0,"name":"mesh0"},{"camera":0,"matrix":[1.0,-0.0,0.0,-0.0,-0.0,1.0,-0.0,0.0,0.0,-0.0,1.0,-0.0,-0.0,0.0,1.0,1.0],"name":"Camera Node"},{"children":[0,1],"name":"Renderer Node"}],"scene":0,"scenes":[{"name":"Layer 0","nodes":[2]}]}