{"accessors":[{"bufferView":0,"byteOffset":0,"componentType":5126,"count":296,"max":[0.0229909997433424,-0.02203799970448017,0.05973299965262413],"min":[-0.00482900021597743,-0.06383100152015686,0.02266800031065941],"type":"VEC3"},{"bufferView":1,"byteOffset":0,"componentType":5125,"count":1764,"type":"SCALAR"}],"asset":{"generator":"VTK","version":"2.0"},"bufferViews":[{"buffer":0,"byteLength":3552,"byteOffset":0,"target":34962},{"buffer":1,"byteLength":7056,"byteOffset":0,"target":34963}],"buffers":[{"byteLength":3552,"uri":"buffer385855.bin"},{"byteLength":7056,"uri":"buffer386908.bin"}],"cameras":[{"perspective":{"aspectRatio":1.3333333333333333,"yfov":0.5235987755982988,"zfar":1000.01,"znear":0.01},"type":"perspective"}],"materials":[{"pbrMetallicRoughness":{"baseColorFactor":[1.0,1.0,1.0,1.0],"metallicFactor":0.0,"roughnessFactor":1.0}}],"meshes":[{"name":"mesh0","primitives":[{"attributes":{"POSITION":0},"indices":1,"material":0,"mode":4}]}],"nodes":[{"mesh":0,"name":"mesh0"},{"camera":0,"matrix":[1.0,-0.0,0.0,-0.0,-0.0,1.0,-0.0,0.0,0.0,-0.0,1.0,-0.0,-0.0,0.0,1.0,1.0],"name":"Camera Node"},{"children":[0,1],"name":"Renderer Node"}],"scene":0,"scenes":[{"name":"Layer 0","nodes":[2]}]}