{"accessors":[{"bufferView":0,"byteOffset":0,"componentType":5126,"count":347,"max":[0.005967000033706427,-0.02833399921655655,0.025855999439954758],"min":[-0.013627000153064728,-0.10043500363826752,0.008546000346541405],"type":"VEC3"},{"bufferView":1,"byteOffset":0,"componentType":5125,"count":2082,"type":"SCALAR"}],"asset":{"generator":"VTK","version":"2.0"},"bufferViews":[{"buffer":0,"byteLength":4164,"byteOffset":0,"target":34962},{"buffer":1,"byteLength":8328,"byteOffset":0,"target":34963}],"buffers":[{"byteLength":4164,"uri":"buffer16910.bin"},{"byteLength":8328,"uri":"buffer17963.bin"}],"cameras":[{"perspective":{"aspectRatio":1.3333333333333333,"yfov":0.5235987755982988,"zfar":1000.01,"znear":0.01},"type":"perspective"}],"materials":[{"pbrMetallicRoughness":{"baseColorFactor":[1.0,1.0,1.0,1.0],"metallicFactor":0.0,"roughnessFactor":1.0}}],"meshes":[{"name":"mesh0","primitives":[{"attributes":{"POSITION":0},"indices":1,"material":0,"mode":4}]}],"nodes":[{"mesh":0,"name":"mesh0"},{"camera":0,"matrix":[1.0,-0.0,0.0,-0.0,-0.0,1.0,-0.0,0.0,0.0,-0.0,1.0,-0.0,-0.0,0.0,1.0,1.0],"name":"Camera Node"},{"children":[0,1],"name":"Renderer Node"}],"scene":0,"scenes":[{"name":"Layer 0","nodes":[2]}]}