{"accessors":[{"bufferView":0,"byteOffset":0,"componentType":5126,"count":82,"max":[0.18053099513053894,0.03518199920654297,0.012834999710321426],"min":[0.10945399850606918,-0.005946999881416559,-0.005555000156164169],"type":"VEC3"},{"bufferView":1,"byteOffset":0,"componentType":5125,"count":480,"type":"SCALAR"}],"asset":{"generator":"VTK","version":"2.0"},"bufferViews":[{"buffer":0,"byteLength":984,"byteOffset":0,"target":34962},{"buffer":1,"byteLength":1920,"byteOffset":0,"target":34963}],"buffers":[{"byteLength":984,"uri":"buffer342769.bin"},{"byteLength":1920,"uri":"buffer343822.bin"}],"cameras":[{"perspective":{"aspectRatio":1.3333333333333333,"yfov":0.5235987755982988,"zfar":1000.01,"znear":0.01},"type":"perspective"}],"materials":[{"pbrMetallicRoughness":{"baseColorFactor":[1.0,1.0,1.0,1.0],"metallicFactor":0.0,"roughnessFactor":1.0}}],"meshes":[{"name":"mesh0","primitives":[{"attributes":{"POSITION":0},"indices":1,"material":0,"mode":4}]}],"nodes":[{"mesh":0,"name":"mesh0"},{"camera":0,"matrix":[1.0,-0.0,0.0,-0.0,-0.0,1.0,-0.0,0.0,0.0,-0.0,1.0,-0.0,-0.0,0.0,1.0,1.0],"name":"Camera Node"},{"children":[0,1],"name":"Renderer Node"}],"scene":0,"scenes":[{"name":"Layer 0","nodes":[2]}]}