{"accessors":[{"bufferView":0,"byteOffset":0,"componentType":5126,"count":57,"max":[0.023854000493884087,0.0007089999853633344,-0.03271099925041199],"min":[0.012668999843299389,-0.006572999991476536,-0.04171200096607208],"type":"VEC3"},{"bufferView":1,"byteOffset":0,"componentType":5125,"count":330,"type":"SCALAR"}],"asset":{"generator":"VTK","version":"2.0"},"bufferViews":[{"buffer":0,"byteLength":684,"byteOffset":0,"target":34962},{"buffer":1,"byteLength":1320,"byteOffset":0,"target":34963}],"buffers":[{"byteLength":684,"uri":"buffer150578.bin"},{"byteLength":1320,"uri":"buffer151631.bin"}],"cameras":[{"perspective":{"aspectRatio":1.3333333333333333,"yfov":0.5235987755982988,"zfar":1000.01,"znear":0.01},"type":"perspective"}],"materials":[{"pbrMetallicRoughness":{"baseColorFactor":[1.0,1.0,1.0,1.0],"metallicFactor":0.0,"roughnessFactor":1.0}}],"meshes":[{"name":"mesh0","primitives":[{"attributes":{"POSITION":0},"indices":1,"material":0,"mode":4}]}],"nodes":[{"mesh":0,"name":"mesh0"},{"camera":0,"matrix":[1.0,-0.0,0.0,-0.0,-0.0,1.0,-0.0,0.0,0.0,-0.0,1.0,-0.0,-0.0,0.0,1.0,1.0],"name":"Camera Node"},{"children":[0,1],"name":"Renderer Node"}],"scene":0,"scenes":[{"name":"Layer 0","nodes":[2]}]}