{"accessors":[{"bufferView":0,"byteOffset":0,"componentType":5126,"count":87,"max":[0.0404059998691082,-0.0003589999978430569,-0.0188790000975132],"min":[0.027000999078154564,-0.005530999973416328,-0.0279300007969141],"type":"VEC3"},{"bufferView":1,"byteOffset":0,"componentType":5125,"count":510,"type":"SCALAR"}],"asset":{"generator":"VTK","version":"2.0"},"bufferViews":[{"buffer":0,"byteLength":1044,"byteOffset":0,"target":34962},{"buffer":1,"byteLength":2040,"byteOffset":0,"target":34963}],"buffers":[{"byteLength":1044,"uri":"buffer23664.bin"},{"byteLength":2040,"uri":"buffer24717.bin"}],"cameras":[{"perspective":{"aspectRatio":1.3333333333333333,"yfov":0.5235987755982988,"zfar":1000.01,"znear":0.01},"type":"perspective"}],"materials":[{"pbrMetallicRoughness":{"baseColorFactor":[1.0,1.0,1.0,1.0],"metallicFactor":0.0,"roughnessFactor":1.0}}],"meshes":[{"name":"mesh0","primitives":[{"attributes":{"POSITION":0},"indices":1,"material":0,"mode":4}]}],"nodes":[{"mesh":0,"name":"mesh0"},{"camera":0,"matrix":[1.0,-0.0,0.0,-0.0,-0.0,1.0,-0.0,0.0,0.0,-0.0,1.0,-0.0,-0.0,0.0,1.0,1.0],"name":"Camera Node"},{"children":[0,1],"name":"Renderer Node"}],"scene":0,"scenes":[{"name":"Layer 0","nodes":[2]}]}