{"accessors":[{"bufferView":0,"byteOffset":0,"componentType":5126,"count":77,"max":[0.0586169995367527,-0.0012390000047162175,-0.00482900021597743],"min":[0.04402400180697441,-0.00671500014141202,-0.013650000095367432],"type":"VEC3"},{"bufferView":1,"byteOffset":0,"componentType":5125,"count":450,"type":"SCALAR"}],"asset":{"generator":"VTK","version":"2.0"},"bufferViews":[{"buffer":0,"byteLength":924,"byteOffset":0,"target":34962},{"buffer":1,"byteLength":1800,"byteOffset":0,"target":34963}],"buffers":[{"byteLength":924,"uri":"buffer250931.bin"},{"byteLength":1800,"uri":"buffer251984.bin"}],"cameras":[{"perspective":{"aspectRatio":1.3333333333333333,"yfov":0.5235987755982988,"zfar":1000.01,"znear":0.01},"type":"perspective"}],"materials":[{"pbrMetallicRoughness":{"baseColorFactor":[1.0,1.0,1.0,1.0],"metallicFactor":0.0,"roughnessFactor":1.0}}],"meshes":[{"name":"mesh0","primitives":[{"attributes":{"POSITION":0},"indices":1,"material":0,"mode":4}]}],"nodes":[{"mesh":0,"name":"mesh0"},{"camera":0,"matrix":[1.0,-0.0,0.0,-0.0,-0.0,1.0,-0.0,0.0,0.0,-0.0,1.0,-0.0,-0.0,0.0,1.0,1.0],"name":"Camera Node"},{"children":[0,1],"name":"Renderer Node"}],"scene":0,"scenes":[{"name":"Layer 0","nodes":[2]}]}