{"accessors":[{"bufferView":0,"byteOffset":0,"componentType":5126,"count":166,"max":[0.046778999269008636,-0.1438630074262619,0.014680000022053719],"min":[0.018900999799370766,-0.1684419959783554,-0.00292899995110929],"type":"VEC3"},{"bufferView":1,"byteOffset":0,"componentType":5125,"count":984,"type":"SCALAR"}],"asset":{"generator":"VTK","version":"2.0"},"bufferViews":[{"buffer":0,"byteLength":1992,"byteOffset":0,"target":34962},{"buffer":1,"byteLength":3936,"byteOffset":0,"target":34963}],"buffers":[{"byteLength":1992,"uri":"buffer55806.bin"},{"byteLength":3936,"uri":"buffer56859.bin"}],"cameras":[{"perspective":{"aspectRatio":1.3333333333333333,"yfov":0.5235987755982988,"zfar":1000.01,"znear":0.01},"type":"perspective"}],"materials":[{"pbrMetallicRoughness":{"baseColorFactor":[1.0,1.0,1.0,1.0],"metallicFactor":0.0,"roughnessFactor":1.0}}],"meshes":[{"name":"mesh0","primitives":[{"attributes":{"POSITION":0},"indices":1,"material":0,"mode":4}]}],"nodes":[{"mesh":0,"name":"mesh0"},{"camera":0,"matrix":[1.0,-0.0,0.0,-0.0,-0.0,1.0,-0.0,0.0,0.0,-0.0,1.0,-0.0,-0.0,0.0,1.0,1.0],"name":"Camera Node"},{"children":[0,1],"name":"Renderer Node"}],"scene":0,"scenes":[{"name":"Layer 0","nodes":[2]}]}