{"accessors":[{"bufferView":0,"byteOffset":0,"componentType":5126,"count":142,"max":[0.06336700171232224,-0.16305500268936157,0.015789000317454338],"min":[0.04466500133275986,-0.17090199887752533,0.004116999916732311],"type":"VEC3"},{"bufferView":1,"byteOffset":0,"componentType":5125,"count":840,"type":"SCALAR"}],"asset":{"generator":"VTK","version":"2.0"},"bufferViews":[{"buffer":0,"byteLength":1704,"byteOffset":0,"target":34962},{"buffer":1,"byteLength":3360,"byteOffset":0,"target":34963}],"buffers":[{"byteLength":1704,"uri":"buffer280870.bin"},{"byteLength":3360,"uri":"buffer281923.bin"}],"cameras":[{"perspective":{"aspectRatio":1.3333333333333333,"yfov":0.5235987755982988,"zfar":1000.01,"znear":0.01},"type":"perspective"}],"materials":[{"pbrMetallicRoughness":{"baseColorFactor":[1.0,1.0,1.0,1.0],"metallicFactor":0.0,"roughnessFactor":1.0}}],"meshes":[{"name":"mesh0","primitives":[{"attributes":{"POSITION":0},"indices":1,"material":0,"mode":4}]}],"nodes":[{"mesh":0,"name":"mesh0"},{"camera":0,"matrix":[1.0,-0.0,0.0,-0.0,-0.0,1.0,-0.0,0.0,0.0,-0.0,1.0,-0.0,-0.0,0.0,1.0,1.0],"name":"Camera Node"},{"children":[0,1],"name":"Renderer Node"}],"scene":0,"scenes":[{"name":"Layer 0","nodes":[2]}]}