{"accessors":[{"bufferView":0,"byteOffset":0,"componentType":5126,"count":133,"max":[0.024748999625444412,-0.10025999695062637,0.00964600034058094],"min":[-0.003140999935567379,-0.14688000082969666,-0.009569000452756882],"type":"VEC3"},{"bufferView":1,"byteOffset":0,"componentType":5125,"count":786,"type":"SCALAR"}],"asset":{"generator":"VTK","version":"2.0"},"bufferViews":[{"buffer":0,"byteLength":1596,"byteOffset":0,"target":34962},{"buffer":1,"byteLength":3144,"byteOffset":0,"target":34963}],"buffers":[{"byteLength":1596,"uri":"buffer227425.bin"},{"byteLength":3144,"uri":"buffer228478.bin"}],"cameras":[{"perspective":{"aspectRatio":1.3333333333333333,"yfov":0.5235987755982988,"zfar":1000.01,"znear":0.01},"type":"perspective"}],"materials":[{"pbrMetallicRoughness":{"baseColorFactor":[1.0,1.0,1.0,1.0],"metallicFactor":0.0,"roughnessFactor":1.0}}],"meshes":[{"name":"mesh0","primitives":[{"attributes":{"POSITION":0},"indices":1,"material":0,"mode":4}]}],"nodes":[{"mesh":0,"name":"mesh0"},{"camera":0,"matrix":[1.0,-0.0,0.0,-0.0,-0.0,1.0,-0.0,0.0,0.0,-0.0,1.0,-0.0,-0.0,0.0,1.0,1.0],"name":"Camera Node"},{"children":[0,1],"name":"Renderer Node"}],"scene":0,"scenes":[{"name":"Layer 0","nodes":[2]}]}