{"accessors":[{"bufferView":0,"byteOffset":0,"componentType":5126,"count":845,"max":[-0.024279000237584114,0.06536299735307693,0.1320279985666275],"min":[-0.16234299540519714,-0.14032499492168427,6.600000051548705e-05],"type":"VEC3"},{"bufferView":1,"byteOffset":0,"componentType":5125,"count":5070,"type":"SCALAR"}],"asset":{"generator":"VTK","version":"2.0"},"bufferViews":[{"buffer":0,"byteLength":10140,"byteOffset":0,"target":34962},{"buffer":1,"byteLength":20280,"byteOffset":0,"target":34963}],"buffers":[{"byteLength":10140,"uri":"buffer30606.bin"},{"byteLength":20280,"uri":"buffer31659.bin"}],"cameras":[{"perspective":{"aspectRatio":1.3333333333333333,"yfov":0.5235987755982988,"zfar":1000.01,"znear":0.01},"type":"perspective"}],"materials":[{"pbrMetallicRoughness":{"baseColorFactor":[1.0,1.0,1.0,1.0],"metallicFactor":0.0,"roughnessFactor":1.0}}],"meshes":[{"name":"mesh0","primitives":[{"attributes":{"POSITION":0},"indices":1,"material":0,"mode":4}]}],"nodes":[{"mesh":0,"name":"mesh0"},{"camera":0,"matrix":[1.0,-0.0,0.0,-0.0,-0.0,1.0,-0.0,0.0,0.0,-0.0,1.0,-0.0,-0.0,0.0,1.0,1.0],"name":"Camera Node"},{"children":[0,1],"name":"Renderer Node"}],"scene":0,"scenes":[{"name":"Layer 0","nodes":[2]}]}