{"accessors":[{"bufferView":0,"byteOffset":0,"componentType":5126,"count":95,"max":[0.008042999543249607,0.006604999769479036,-0.023938000202178955],"min":[-0.023972000926733017,-0.007879000157117844,-0.03911599889397621],"type":"VEC3"},{"bufferView":1,"byteOffset":0,"componentType":5125,"count":558,"type":"SCALAR"}],"asset":{"generator":"VTK","version":"2.0"},"bufferViews":[{"buffer":0,"byteLength":1140,"byteOffset":0,"target":34962},{"buffer":1,"byteLength":2232,"byteOffset":0,"target":34963}],"buffers":[{"byteLength":1140,"uri":"buffer31931.bin"},{"byteLength":2232,"uri":"buffer32984.bin"}],"cameras":[{"perspective":{"aspectRatio":1.3333333333333333,"yfov":0.5235987755982988,"zfar":1000.01,"znear":0.01},"type":"perspective"}],"materials":[{"pbrMetallicRoughness":{"baseColorFactor":[1.0,1.0,1.0,1.0],"metallicFactor":0.0,"roughnessFactor":1.0}}],"meshes":[{"name":"mesh0","primitives":[{"attributes":{"POSITION":0},"indices":1,"material":0,"mode":4}]}],"nodes":[{"mesh":0,"name":"mesh0"},{"camera":0,"matrix":[1.0,-0.0,0.0,-0.0,-0.0,1.0,-0.0,0.0,0.0,-0.0,1.0,-0.0,-0.0,0.0,1.0,1.0],"name":"Camera Node"},{"children":[0,1],"name":"Renderer Node"}],"scene":0,"scenes":[{"name":"Layer 0","nodes":[2]}]}