{"accessors":[{"bufferView":0,"byteOffset":0,"componentType":5126,"count":87,"max":[-0.005357999820262194,0.008462999947369099,0.05000999942421913],"min":[-0.03551900014281273,-0.006591999903321266,0.03543899953365326],"type":"VEC3"},{"bufferView":1,"byteOffset":0,"componentType":5125,"count":510,"type":"SCALAR"}],"asset":{"generator":"VTK","version":"2.0"},"bufferViews":[{"buffer":0,"byteLength":1044,"byteOffset":0,"target":34962},{"buffer":1,"byteLength":2040,"byteOffset":0,"target":34963}],"buffers":[{"byteLength":1044,"uri":"buffer373823.bin"},{"byteLength":2040,"uri":"buffer374876.bin"}],"cameras":[{"perspective":{"aspectRatio":1.3333333333333333,"yfov":0.5235987755982988,"zfar":1000.01,"znear":0.01},"type":"perspective"}],"materials":[{"pbrMetallicRoughness":{"baseColorFactor":[1.0,1.0,1.0,1.0],"metallicFactor":0.0,"roughnessFactor":1.0}}],"meshes":[{"name":"mesh0","primitives":[{"attributes":{"POSITION":0},"indices":1,"material":0,"mode":4}]}],"nodes":[{"mesh":0,"name":"mesh0"},{"camera":0,"matrix":[1.0,-0.0,0.0,-0.0,-0.0,1.0,-0.0,0.0,0.0,-0.0,1.0,-0.0,-0.0,0.0,1.0,1.0],"name":"Camera Node"},{"children":[0,1],"name":"Renderer Node"}],"scene":0,"scenes":[{"name":"Layer 0","nodes":[2]}]}