{"accessors":[{"bufferView":0,"byteOffset":0,"componentType":5126,"count":958,"max":[0.07691799849271774,0.008050000295042992,0.0541980005800724],"min":[-0.03598399832844734,-0.010134999640285969,-0.037647001445293427],"type":"VEC3"},{"bufferView":1,"byteOffset":0,"componentType":5125,"count":5520,"type":"SCALAR"}],"asset":{"generator":"VTK","version":"2.0"},"bufferViews":[{"buffer":0,"byteLength":11496,"byteOffset":0,"target":34962},{"buffer":1,"byteLength":22080,"byteOffset":0,"target":34963}],"buffers":[{"byteLength":11496,"uri":"buffer403872.bin"},{"byteLength":22080,"uri":"buffer405062.bin"}],"cameras":[{"perspective":{"aspectRatio":1.3333333333333333,"yfov":0.5235987755982988,"zfar":1000.01,"znear":0.01},"type":"perspective"}],"materials":[{"pbrMetallicRoughness":{"baseColorFactor":[1.0,1.0,1.0,1.0],"metallicFactor":0.0,"roughnessFactor":1.0}}],"meshes":[{"name":"mesh0","primitives":[{"attributes":{"POSITION":0},"indices":1,"material":0,"mode":4}]}],"nodes":[{"mesh":0,"name":"mesh0"},{"camera":0,"matrix":[1.0,-0.0,0.0,-0.0,-0.0,1.0,-0.0,0.0,0.0,-0.0,1.0,-0.0,-0.0,0.0,1.0,1.0],"name":"Camera Node"},{"children":[0,1],"name":"Renderer Node"}],"scene":0,"scenes":[{"name":"Layer 0","nodes":[2]}]}