{"accessors":[{"bufferView":0,"byteOffset":0,"componentType":5126,"count":56,"max":[0.017176000401377678,0.016992999240756035,0.012678000144660473],"min":[-0.00133200001437217,-0.010443000122904778,-0.005940000060945749],"type":"VEC3"},{"bufferView":1,"byteOffset":0,"componentType":5125,"count":324,"type":"SCALAR"}],"asset":{"generator":"VTK","version":"2.0"},"bufferViews":[{"buffer":0,"byteLength":672,"byteOffset":0,"target":34962},{"buffer":1,"byteLength":1296,"byteOffset":0,"target":34963}],"buffers":[{"byteLength":672,"uri":"buffer26524.bin"},{"byteLength":1296,"uri":"buffer27684.bin"}],"cameras":[{"perspective":{"aspectRatio":1.3333333333333333,"yfov":0.5235987755982988,"zfar":1000.01,"znear":0.01},"type":"perspective"}],"materials":[{"pbrMetallicRoughness":{"baseColorFactor":[1.0,1.0,1.0,1.0],"metallicFactor":0.0,"roughnessFactor":1.0}}],"meshes":[{"name":"mesh0","primitives":[{"attributes":{"POSITION":0},"indices":1,"material":0,"mode":4}]}],"nodes":[{"mesh":0,"name":"mesh0"},{"camera":0,"matrix":[1.0,-0.0,0.0,-0.0,-0.0,1.0,-0.0,0.0,0.0,-0.0,1.0,-0.0,-0.0,0.0,1.0,1.0],"name":"Camera Node"},{"children":[0,1],"name":"Renderer Node"}],"scene":0,"scenes":[{"name":"Layer 0","nodes":[2]}]}