{"accessors":[{"bufferView":0,"byteOffset":0,"componentType":5126,"count":203,"max":[0.010517000220716,0.022407999262213707,0.12457799911499023],"min":[-0.03541500121355057,-0.014081999659538269,-0.0015569999814033508],"type":"VEC3"},{"bufferView":1,"byteOffset":0,"componentType":5125,"count":1194,"type":"SCALAR"}],"asset":{"generator":"VTK","version":"2.0"},"bufferViews":[{"buffer":0,"byteLength":2436,"byteOffset":0,"target":34962},{"buffer":1,"byteLength":4776,"byteOffset":0,"target":34963}],"buffers":[{"byteLength":2436,"uri":"buffer60000.bin"},{"byteLength":4776,"uri":"buffer61053.bin"}],"cameras":[{"perspective":{"aspectRatio":1.3333333333333333,"yfov":0.5235987755982988,"zfar":1000.01,"znear":0.01},"type":"perspective"}],"materials":[{"pbrMetallicRoughness":{"baseColorFactor":[1.0,1.0,1.0,1.0],"metallicFactor":0.0,"roughnessFactor":1.0}}],"meshes":[{"name":"mesh0","primitives":[{"attributes":{"POSITION":0},"indices":1,"material":0,"mode":4}]}],"nodes":[{"mesh":0,"name":"mesh0"},{"camera":0,"matrix":[1.0,-0.0,0.0,-0.0,-0.0,1.0,-0.0,0.0,0.0,-0.0,1.0,-0.0,-0.0,0.0,1.0,1.0],"name":"Camera Node"},{"children":[0,1],"name":"Renderer Node"}],"scene":0,"scenes":[{"name":"Layer 0","nodes":[2]}]}