{"accessors":[{"bufferView":0,"byteOffset":0,"componentType":5126,"count":1000,"max":[0.18381699919700623,0.04303500056266785,0.04563099890947342],"min":[-0.009800000116229057,-0.009839000180363655,-0.03923499956727028],"type":"VEC3"},{"bufferView":1,"byteOffset":0,"componentType":5125,"count":5865,"type":"SCALAR"}],"asset":{"generator":"VTK","version":"2.0"},"bufferViews":[{"buffer":0,"byteLength":12000,"byteOffset":0,"target":34962},{"buffer":1,"byteLength":23460,"byteOffset":0,"target":34963}],"buffers":[{"byteLength":12000,"uri":"buffer392654.bin"},{"byteLength":23460,"uri":"buffer393817.bin"}],"cameras":[{"perspective":{"aspectRatio":1.3333333333333333,"yfov":0.5235987755982988,"zfar":1000.01,"znear":0.01},"type":"perspective"}],"materials":[{"pbrMetallicRoughness":{"baseColorFactor":[1.0,1.0,1.0,1.0],"metallicFactor":0.0,"roughnessFactor":1.0}}],"meshes":[{"name":"mesh0","primitives":[{"attributes":{"POSITION":0},"indices":1,"material":0,"mode":4}]}],"nodes":[{"mesh":0,"name":"mesh0"},{"camera":0,"matrix":[1.0,-0.0,0.0,-0.0,-0.0,1.0,-0.0,0.0,0.0,-0.0,1.0,-0.0,-0.0,0.0,1.0,1.0],"name":"Camera Node"},{"children":[0,1],"name":"Renderer Node"}],"scene":0,"scenes":[{"name":"Layer 0","nodes":[2]}]}