{"accessors":[{"bufferView":0,"byteOffset":0,"componentType":5126,"count":26,"max":[0.007397000212222338,0.008314999751746655,0.006457999814301729],"min":[-0.006775999907404184,-0.0075969998724758625,-0.003882999997586012],"type":"VEC3"},{"bufferView":1,"byteOffset":0,"componentType":5125,"count":144,"type":"SCALAR"}],"asset":{"generator":"VTK","version":"2.0"},"bufferViews":[{"buffer":0,"byteLength":312,"byteOffset":0,"target":34962},{"buffer":1,"byteLength":576,"byteOffset":0,"target":34963}],"buffers":[{"byteLength":312,"uri":"buffer149143.bin"},{"byteLength":576,"uri":"buffer150306.bin"}],"cameras":[{"perspective":{"aspectRatio":1.3333333333333333,"yfov":0.5235987755982988,"zfar":1000.01,"znear":0.01},"type":"perspective"}],"materials":[{"pbrMetallicRoughness":{"baseColorFactor":[1.0,1.0,1.0,1.0],"metallicFactor":0.0,"roughnessFactor":1.0}}],"meshes":[{"name":"mesh0","primitives":[{"attributes":{"POSITION":0},"indices":1,"material":0,"mode":4}]}],"nodes":[{"mesh":0,"name":"mesh0"},{"camera":0,"matrix":[1.0,-0.0,0.0,-0.0,-0.0,1.0,-0.0,0.0,0.0,-0.0,1.0,-0.0,-0.0,0.0,1.0,1.0],"name":"Camera Node"},{"children":[0,1],"name":"Renderer Node"}],"scene":0,"scenes":[{"name":"Layer 0","nodes":[2]}]}