{"accessors":[{"bufferView":0,"byteOffset":0,"componentType":5126,"count":47,"max":[0.008841999806463718,0.01177200023084879,0.009394999593496323],"min":[-0.0132039999589324,-0.00906199961900711,-0.007957999594509602],"type":"VEC3"},{"bufferView":1,"byteOffset":0,"componentType":5125,"count":270,"type":"SCALAR"}],"asset":{"generator":"VTK","version":"2.0"},"bufferViews":[{"buffer":0,"byteLength":564,"byteOffset":0,"target":34962},{"buffer":1,"byteLength":1080,"byteOffset":0,"target":34963}],"buffers":[{"byteLength":564,"uri":"buffer154553.bin"},{"byteLength":1080,"uri":"buffer155713.bin"}],"cameras":[{"perspective":{"aspectRatio":1.3333333333333333,"yfov":0.5235987755982988,"zfar":1000.01,"znear":0.01},"type":"perspective"}],"materials":[{"pbrMetallicRoughness":{"baseColorFactor":[1.0,1.0,1.0,1.0],"metallicFactor":0.0,"roughnessFactor":1.0}}],"meshes":[{"name":"mesh0","primitives":[{"attributes":{"POSITION":0},"indices":1,"material":0,"mode":4}]}],"nodes":[{"mesh":0,"name":"mesh0"},{"camera":0,"matrix":[1.0,-0.0,0.0,-0.0,-0.0,1.0,-0.0,0.0,0.0,-0.0,1.0,-0.0,-0.0,0.0,1.0,1.0],"name":"Camera Node"},{"children":[0,1],"name":"Renderer Node"}],"scene":0,"scenes":[{"name":"Layer 0","nodes":[2]}]}