{"accessors":[{"bufferView":0,"byteOffset":0,"componentType":5126,"count":34,"max":[0.006093000061810017,0.007488999981433153,0.007170000113546848],"min":[-0.01268799975514412,-0.005727999843657017,-0.007584000006318092],"type":"VEC3"},{"bufferView":1,"byteOffset":0,"componentType":5125,"count":192,"type":"SCALAR"}],"asset":{"generator":"VTK","version":"2.0"},"bufferViews":[{"buffer":0,"byteLength":408,"byteOffset":0,"target":34962},{"buffer":1,"byteLength":768,"byteOffset":0,"target":34963}],"buffers":[{"byteLength":408,"uri":"buffer62650.bin"},{"byteLength":768,"uri":"buffer63810.bin"}],"cameras":[{"perspective":{"aspectRatio":1.3333333333333333,"yfov":0.5235987755982988,"zfar":1000.01,"znear":0.01},"type":"perspective"}],"materials":[{"pbrMetallicRoughness":{"baseColorFactor":[1.0,1.0,1.0,1.0],"metallicFactor":0.0,"roughnessFactor":1.0}}],"meshes":[{"name":"mesh0","primitives":[{"attributes":{"POSITION":0},"indices":1,"material":0,"mode":4}]}],"nodes":[{"mesh":0,"name":"mesh0"},{"camera":0,"matrix":[1.0,-0.0,0.0,-0.0,-0.0,1.0,-0.0,0.0,0.0,-0.0,1.0,-0.0,-0.0,0.0,1.0,1.0],"name":"Camera Node"},{"children":[0,1],"name":"Renderer Node"}],"scene":0,"scenes":[{"name":"Layer 0","nodes":[2]}]}