{"accessors":[{"bufferView":0,"byteOffset":0,"componentType":5126,"count":34,"max":[0.00762399984523654,0.006947999820113182,0.00877700001001358],"min":[-0.006386999972164631,-0.010224999859929085,-0.003711000084877014],"type":"VEC3"},{"bufferView":1,"byteOffset":0,"componentType":5125,"count":192,"type":"SCALAR"}],"asset":{"generator":"VTK","version":"2.0"},"bufferViews":[{"buffer":0,"byteLength":408,"byteOffset":0,"target":34962},{"buffer":1,"byteLength":768,"byteOffset":0,"target":34963}],"buffers":[{"byteLength":408,"uri":"buffer57131.bin"},{"byteLength":768,"uri":"buffer58291.bin"}],"cameras":[{"perspective":{"aspectRatio":1.3333333333333333,"yfov":0.5235987755982988,"zfar":1000.01,"znear":0.01},"type":"perspective"}],"materials":[{"pbrMetallicRoughness":{"baseColorFactor":[1.0,1.0,1.0,1.0],"metallicFactor":0.0,"roughnessFactor":1.0}}],"meshes":[{"name":"mesh0","primitives":[{"attributes":{"POSITION":0},"indices":1,"material":0,"mode":4}]}],"nodes":[{"mesh":0,"name":"mesh0"},{"camera":0,"matrix":[1.0,-0.0,0.0,-0.0,-0.0,1.0,-0.0,0.0,0.0,-0.0,1.0,-0.0,-0.0,0.0,1.0,1.0],"name":"Camera Node"},{"children":[0,1],"name":"Renderer Node"}],"scene":0,"scenes":[{"name":"Layer 0","nodes":[2]}]}