{"accessors":[{"bufferView":0,"byteOffset":0,"componentType":5126,"count":183,"max":[0.0016110000433400273,0.014078999869525433,0.07167500257492065],"min":[-0.03229900076985359,-0.23097699880599976,-0.010858000256121159],"type":"VEC3"},{"bufferView":1,"byteOffset":0,"componentType":5125,"count":1098,"type":"SCALAR"}],"asset":{"generator":"VTK","version":"2.0"},"bufferViews":[{"buffer":0,"byteLength":2196,"byteOffset":0,"target":34962},{"buffer":1,"byteLength":4392,"byteOffset":0,"target":34963}],"buffers":[{"byteLength":2196,"uri":"buffer388505.bin"},{"byteLength":4392,"uri":"buffer389558.bin"}],"cameras":[{"perspective":{"aspectRatio":1.3333333333333333,"yfov":0.5235987755982988,"zfar":1000.01,"znear":0.01},"type":"perspective"}],"materials":[{"pbrMetallicRoughness":{"baseColorFactor":[1.0,1.0,1.0,1.0],"metallicFactor":0.0,"roughnessFactor":1.0}}],"meshes":[{"name":"mesh0","primitives":[{"attributes":{"POSITION":0},"indices":1,"material":0,"mode":4}]}],"nodes":[{"mesh":0,"name":"mesh0"},{"camera":0,"matrix":[1.0,-0.0,0.0,-0.0,-0.0,1.0,-0.0,0.0,0.0,-0.0,1.0,-0.0,-0.0,0.0,1.0,1.0],"name":"Camera Node"},{"children":[0,1],"name":"Renderer Node"}],"scene":0,"scenes":[{"name":"Layer 0","nodes":[2]}]}