{"accessors":[{"bufferView":0,"byteOffset":0,"componentType":5126,"count":194,"max":[0.008658000268042088,0.0023129999171942472,0.036616001278162],"min":[-0.020873000845313072,-0.23849600553512573,-0.00964299961924553],"type":"VEC3"},{"bufferView":1,"byteOffset":0,"componentType":5125,"count":1152,"type":"SCALAR"}],"asset":{"generator":"VTK","version":"2.0"},"bufferViews":[{"buffer":0,"byteLength":2328,"byteOffset":0,"target":34962},{"buffer":1,"byteLength":4608,"byteOffset":0,"target":34963}],"buffers":[{"byteLength":2328,"uri":"buffer196597.bin"},{"byteLength":4608,"uri":"buffer197650.bin"}],"cameras":[{"perspective":{"aspectRatio":1.3333333333333333,"yfov":0.5235987755982988,"zfar":1000.01,"znear":0.01},"type":"perspective"}],"materials":[{"pbrMetallicRoughness":{"baseColorFactor":[1.0,1.0,1.0,1.0],"metallicFactor":0.0,"roughnessFactor":1.0}}],"meshes":[{"name":"mesh0","primitives":[{"attributes":{"POSITION":0},"indices":1,"material":0,"mode":4}]}],"nodes":[{"mesh":0,"name":"mesh0"},{"camera":0,"matrix":[1.0,-0.0,0.0,-0.0,-0.0,1.0,-0.0,0.0,0.0,-0.0,1.0,-0.0,-0.0,0.0,1.0,1.0],"name":"Camera Node"},{"children":[0,1],"name":"Renderer Node"}],"scene":0,"scenes":[{"name":"Layer 0","nodes":[2]}]}