{"accessors":[{"bufferView":0,"byteOffset":0,"componentType":5126,"count":2767,"max":[0.08423899859189987,0.0393499992787838,0.1378909945487976],"min":[-0.10852699726819992,-0.2703939974308014,-0.1378909945487976],"type":"VEC3"},{"bufferView":1,"byteOffset":0,"componentType":5125,"count":16326,"type":"SCALAR"}],"asset":{"generator":"VTK","version":"2.0"},"bufferViews":[{"buffer":0,"byteLength":33204,"byteOffset":0,"target":34962},{"buffer":1,"byteLength":65304,"byteOffset":0,"target":34963}],"buffers":[{"byteLength":33204,"uri":"buffer162872.bin"},{"byteLength":65304,"uri":"buffer163925.bin"}],"cameras":[{"perspective":{"aspectRatio":1.3333333333333333,"yfov":0.5235987755982988,"zfar":1000.01,"znear":0.01},"type":"perspective"}],"materials":[{"pbrMetallicRoughness":{"baseColorFactor":[1.0,1.0,1.0,1.0],"metallicFactor":0.0,"roughnessFactor":1.0}}],"meshes":[{"name":"mesh0","primitives":[{"attributes":{"POSITION":0},"indices":1,"material":0,"mode":4}]}],"nodes":[{"mesh":0,"name":"mesh0"},{"camera":0,"matrix":[1.0,-0.0,0.0,-0.0,-0.0,1.0,-0.0,0.0,0.0,-0.0,1.0,-0.0,-0.0,0.0,1.0,1.0],"name":"Camera Node"},{"children":[0,1],"name":"Renderer Node"}],"scene":0,"scenes":[{"name":"Layer 0","nodes":[2]}]}