{"accessors":[{"bufferView":0,"byteOffset":0,"componentType":5126,"count":132,"max":[0.026345999911427498,-0.09825199842453003,0.031612999737262726],"min":[-0.00040099999750964344,-0.14214399456977844,0.014096000231802464],"type":"VEC3"},{"bufferView":1,"byteOffset":0,"componentType":5125,"count":780,"type":"SCALAR"}],"asset":{"generator":"VTK","version":"2.0"},"bufferViews":[{"buffer":0,"byteLength":1584,"byteOffset":0,"target":34962},{"buffer":1,"byteLength":3120,"byteOffset":0,"target":34963}],"buffers":[{"byteLength":1584,"uri":"buffer412066.bin"},{"byteLength":3120,"uri":"buffer413119.bin"}],"cameras":[{"perspective":{"aspectRatio":1.3333333333333333,"yfov":0.5235987755982988,"zfar":1000.01,"znear":0.01},"type":"perspective"}],"materials":[{"pbrMetallicRoughness":{"baseColorFactor":[1.0,1.0,1.0,1.0],"metallicFactor":0.0,"roughnessFactor":1.0}}],"meshes":[{"name":"mesh0","primitives":[{"attributes":{"POSITION":0},"indices":1,"material":0,"mode":4}]}],"nodes":[{"mesh":0,"name":"mesh0"},{"camera":0,"matrix":[1.0,-0.0,0.0,-0.0,-0.0,1.0,-0.0,0.0,0.0,-0.0,1.0,-0.0,-0.0,0.0,1.0,1.0],"name":"Camera Node"},{"children":[0,1],"name":"Renderer Node"}],"scene":0,"scenes":[{"name":"Layer 0","nodes":[2]}]}