{"accessors":[{"bufferView":0,"byteOffset":0,"componentType":5126,"count":2576,"max":[-0.0811619982123375,0.04848700016736984,0.053369998931884766],"min":[-0.18278199434280396,-0.09524399787187576,-0.0528159998357296],"type":"VEC3"},{"bufferView":1,"byteOffset":0,"componentType":5125,"count":15570,"type":"SCALAR"}],"asset":{"generator":"VTK","version":"2.0"},"bufferViews":[{"buffer":0,"byteLength":30912,"byteOffset":0,"target":34962},{"buffer":1,"byteLength":62280,"byteOffset":0,"target":34963}],"buffers":[{"byteLength":30912,"uri":"buffer401072.bin"},{"byteLength":62280,"uri":"buffer402125.bin"}],"cameras":[{"perspective":{"aspectRatio":1.3333333333333333,"yfov":0.5235987755982988,"zfar":1000.01,"znear":0.01},"type":"perspective"}],"materials":[{"pbrMetallicRoughness":{"baseColorFactor":[1.0,1.0,1.0,1.0],"metallicFactor":0.0,"roughnessFactor":1.0}}],"meshes":[{"name":"mesh0","primitives":[{"attributes":{"POSITION":0},"indices":1,"material":0,"mode":4}]}],"nodes":[{"mesh":0,"name":"mesh0"},{"camera":0,"matrix":[1.0,-0.0,0.0,-0.0,-0.0,1.0,-0.0,0.0,0.0,-0.0,1.0,-0.0,-0.0,0.0,1.0,1.0],"name":"Camera Node"},{"children":[0,1],"name":"Renderer Node"}],"scene":0,"scenes":[{"name":"Layer 0","nodes":[2]}]}