{"accessors":[{"bufferView":0,"byteOffset":0,"componentType":5126,"count":73,"max":[0.0026519999373704195,0.004358000122010708,0.021803999319672585],"min":[-0.010304000228643417,-0.01759300008416176,-0.0014609999489039183],"type":"VEC3"},{"bufferView":1,"byteOffset":0,"componentType":5125,"count":426,"type":"SCALAR"}],"asset":{"generator":"VTK","version":"2.0"},"bufferViews":[{"buffer":0,"byteLength":876,"byteOffset":0,"target":34962},{"buffer":1,"byteLength":1704,"byteOffset":0,"target":34963}],"buffers":[{"byteLength":876,"uri":"buffer427534.bin"},{"byteLength":1704,"uri":"buffer428587.bin"}],"cameras":[{"perspective":{"aspectRatio":1.3333333333333333,"yfov":0.5235987755982988,"zfar":1000.01,"znear":0.01},"type":"perspective"}],"materials":[{"pbrMetallicRoughness":{"baseColorFactor":[1.0,1.0,1.0,1.0],"metallicFactor":0.0,"roughnessFactor":1.0}}],"meshes":[{"name":"mesh0","primitives":[{"attributes":{"POSITION":0},"indices":1,"material":0,"mode":4}]}],"nodes":[{"mesh":0,"name":"mesh0"},{"camera":0,"matrix":[1.0,-0.0,0.0,-0.0,-0.0,1.0,-0.0,0.0,0.0,-0.0,1.0,-0.0,-0.0,0.0,1.0,1.0],"name":"Camera Node"},{"children":[0,1],"name":"Renderer Node"}],"scene":0,"scenes":[{"name":"Layer 0","nodes":[2]}]}