{"accessors":[{"bufferView":0,"byteOffset":0,"componentType":5126,"count":798,"max":[0.03074200078845024,0.005007000174373388,0.029503999277949333],"min":[-0.10289400070905685,-0.19303500652313232,-0.0934239998459816],"type":"VEC3"},{"bufferView":1,"byteOffset":0,"componentType":5125,"count":4785,"type":"SCALAR"}],"asset":{"generator":"VTK","version":"2.0"},"bufferViews":[{"buffer":0,"byteLength":9576,"byteOffset":0,"target":34962},{"buffer":1,"byteLength":19140,"byteOffset":0,"target":34963}],"buffers":[{"byteLength":9576,"uri":"buffer87266.bin"},{"byteLength":19140,"uri":"buffer88319.bin"}],"cameras":[{"perspective":{"aspectRatio":1.3333333333333333,"yfov":0.5235987755982988,"zfar":1000.01,"znear":0.01},"type":"perspective"}],"materials":[{"pbrMetallicRoughness":{"baseColorFactor":[1.0,1.0,1.0,1.0],"metallicFactor":0.0,"roughnessFactor":1.0}}],"meshes":[{"name":"mesh0","primitives":[{"attributes":{"POSITION":0},"indices":1,"material":0,"mode":4}]}],"nodes":[{"mesh":0,"name":"mesh0"},{"camera":0,"matrix":[1.0,-0.0,0.0,-0.0,-0.0,1.0,-0.0,0.0,0.0,-0.0,1.0,-0.0,-0.0,0.0,1.0,1.0],"name":"Camera Node"},{"children":[0,1],"name":"Renderer Node"}],"scene":0,"scenes":[{"name":"Layer 0","nodes":[2]}]}