{"accessors":[{"bufferView":0,"byteOffset":0,"componentType":5126,"count":3305,"max":[0.10333699733018875,0.15940900146961212,0.08057499676942825],"min":[-0.09199599921703339,-0.027194999158382416,-0.08057499676942825],"type":"VEC3"},{"bufferView":1,"byteOffset":0,"componentType":5125,"count":19791,"type":"SCALAR"}],"asset":{"generator":"VTK","version":"2.0"},"bufferViews":[{"buffer":0,"byteLength":39660,"byteOffset":0,"target":34962},{"buffer":1,"byteLength":79164,"byteOffset":0,"target":34963}],"buffers":[{"byteLength":39660,"uri":"buffer138112.bin"},{"byteLength":79164,"uri":"buffer139596.bin"}],"cameras":[{"perspective":{"aspectRatio":1.3333333333333333,"yfov":0.5235987755982988,"zfar":1000.01,"znear":0.01},"type":"perspective"}],"materials":[{"pbrMetallicRoughness":{"baseColorFactor":[1.0,1.0,1.0,1.0],"metallicFactor":0.0,"roughnessFactor":1.0}}],"meshes":[{"name":"mesh0","primitives":[{"attributes":{"POSITION":0},"indices":1,"material":0,"mode":4}]}],"nodes":[{"mesh":0,"name":"mesh0"},{"camera":0,"matrix":[1.0,-0.0,0.0,-0.0,-0.0,1.0,-0.0,0.0,0.0,-0.0,1.0,-0.0,-0.0,0.0,1.0,1.0],"name":"Camera Node"},{"children":[0,1],"name":"Renderer Node"}],"scene":0,"scenes":[{"name":"Layer 0","nodes":[2]}]}