{"accessors":[{"bufferView":0,"byteOffset":0,"componentType":5126,"count":460,"max":[0.027060000225901604,0.01549999974668026,0.017194999381899834],"min":[-0.015924999490380287,-0.009898999705910683,-0.014719000086188316],"type":"VEC3"},{"bufferView":1,"byteOffset":0,"componentType":5125,"count":2748,"type":"SCALAR"}],"asset":{"generator":"VTK","version":"2.0"},"bufferViews":[{"buffer":0,"byteLength":5520,"byteOffset":0,"target":34962},{"buffer":1,"byteLength":10992,"byteOffset":0,"target":34963}],"buffers":[{"byteLength":5520,"uri":"buffer286553.bin"},{"byteLength":10992,"uri":"buffer287606.bin"}],"cameras":[{"perspective":{"aspectRatio":1.3333333333333333,"yfov":0.5235987755982988,"zfar":1000.01,"znear":0.01},"type":"perspective"}],"materials":[{"pbrMetallicRoughness":{"baseColorFactor":[1.0,1.0,1.0,1.0],"metallicFactor":0.0,"roughnessFactor":1.0}}],"meshes":[{"name":"mesh0","primitives":[{"attributes":{"POSITION":0},"indices":1,"material":0,"mode":4}]}],"nodes":[{"mesh":0,"name":"mesh0"},{"camera":0,"matrix":[1.0,-0.0,0.0,-0.0,-0.0,1.0,-0.0,0.0,0.0,-0.0,1.0,-0.0,-0.0,0.0,1.0,1.0],"name":"Camera Node"},{"children":[0,1],"name":"Renderer Node"}],"scene":0,"scenes":[{"name":"Layer 0","nodes":[2]}]}