{"accessors":[{"bufferView":0,"byteOffset":0,"componentType":5126,"count":99,"max":[0.028606999665498734,0.013894000090658665,0.020409999415278435],"min":[-0.017534000799059868,-0.016224000602960587,-0.02114100009202957],"type":"VEC3"},{"bufferView":1,"byteOffset":0,"componentType":5125,"count":582,"type":"SCALAR"}],"asset":{"generator":"VTK","version":"2.0"},"bufferViews":[{"buffer":0,"byteLength":1188,"byteOffset":0,"target":34962},{"buffer":1,"byteLength":2328,"byteOffset":0,"target":34963}],"buffers":[{"byteLength":1188,"uri":"buffer110471.bin"},{"byteLength":2328,"uri":"buffer111524.bin"}],"cameras":[{"perspective":{"aspectRatio":1.3333333333333333,"yfov":0.5235987755982988,"zfar":1000.01,"znear":0.01},"type":"perspective"}],"materials":[{"pbrMetallicRoughness":{"baseColorFactor":[1.0,1.0,1.0,1.0],"metallicFactor":0.0,"roughnessFactor":1.0}}],"meshes":[{"name":"mesh0","primitives":[{"attributes":{"POSITION":0},"indices":1,"material":0,"mode":4}]}],"nodes":[{"mesh":0,"name":"mesh0"},{"camera":0,"matrix":[1.0,-0.0,0.0,-0.0,-0.0,1.0,-0.0,0.0,0.0,-0.0,1.0,-0.0,-0.0,0.0,1.0,1.0],"name":"Camera Node"},{"children":[0,1],"name":"Renderer Node"}],"scene":0,"scenes":[{"name":"Layer 0","nodes":[2]}]}