{"accessors":[{"bufferView":0,"byteOffset":0,"componentType":5126,"count":143,"max":[0.029916999861598015,-0.060029998421669006,-0.04434800148010254],"min":[0.011827999725937843,-0.09123499691486359,-0.05862399935722351],"type":"VEC3"},{"bufferView":1,"byteOffset":0,"componentType":5125,"count":846,"type":"SCALAR"}],"asset":{"generator":"VTK","version":"2.0"},"bufferViews":[{"buffer":0,"byteLength":1716,"byteOffset":0,"target":34962},{"buffer":1,"byteLength":3384,"byteOffset":0,"target":34963}],"buffers":[{"byteLength":1716,"uri":"buffer27956.bin"},{"byteLength":3384,"uri":"buffer29009.bin"}],"cameras":[{"perspective":{"aspectRatio":1.3333333333333333,"yfov":0.5235987755982988,"zfar":1000.01,"znear":0.01},"type":"perspective"}],"materials":[{"pbrMetallicRoughness":{"baseColorFactor":[1.0,1.0,1.0,1.0],"metallicFactor":0.0,"roughnessFactor":1.0}}],"meshes":[{"name":"mesh0","primitives":[{"attributes":{"POSITION":0},"indices":1,"material":0,"mode":4}]}],"nodes":[{"mesh":0,"name":"mesh0"},{"camera":0,"matrix":[1.0,-0.0,0.0,-0.0,-0.0,1.0,-0.0,0.0,0.0,-0.0,1.0,-0.0,-0.0,0.0,1.0,1.0],"name":"Camera Node"},{"children":[0,1],"name":"Renderer Node"}],"scene":0,"scenes":[{"name":"Layer 0","nodes":[2]}]}