{"accessors":[{"bufferView":0,"byteOffset":0,"componentType":5126,"count":145,"max":[0.039000000804662704,-0.028519999235868454,0.03827299922704697],"min":[-0.0313510000705719,-0.41526898741722107,-0.029719000682234764],"type":"VEC3"},{"bufferView":1,"byteOffset":0,"componentType":5125,"count":858,"type":"SCALAR"}],"asset":{"generator":"VTK","version":"2.0"},"bufferViews":[{"buffer":0,"byteLength":1740,"byteOffset":0,"target":34962},{"buffer":1,"byteLength":3432,"byteOffset":0,"target":34963}],"buffers":[{"byteLength":1740,"uri":"buffer416255.bin"},{"byteLength":3432,"uri":"buffer417308.bin"}],"cameras":[{"perspective":{"aspectRatio":1.3333333333333333,"yfov":0.5235987755982988,"zfar":1000.01,"znear":0.01},"type":"perspective"}],"materials":[{"pbrMetallicRoughness":{"baseColorFactor":[1.0,1.0,1.0,1.0],"metallicFactor":0.0,"roughnessFactor":1.0}}],"meshes":[{"name":"mesh0","primitives":[{"attributes":{"POSITION":0},"indices":1,"material":0,"mode":4}]}],"nodes":[{"mesh":0,"name":"mesh0"},{"camera":0,"matrix":[1.0,-0.0,0.0,-0.0,-0.0,1.0,-0.0,0.0,0.0,-0.0,1.0,-0.0,-0.0,0.0,1.0,1.0],"name":"Camera Node"},{"children":[0,1],"name":"Renderer Node"}],"scene":0,"scenes":[{"name":"Layer 0","nodes":[2]}]}