{"accessors":[{"bufferView":0,"byteOffset":0,"componentType":5126,"count":105,"max":[0.0029690000228583813,-0.012608000077307224,-0.01611899957060814],"min":[-0.015344999730587006,-0.03376200050115585,-0.03281699866056442],"type":"VEC3"},{"bufferView":1,"byteOffset":0,"componentType":5125,"count":618,"type":"SCALAR"}],"asset":{"generator":"VTK","version":"2.0"},"bufferViews":[{"buffer":0,"byteLength":1260,"byteOffset":0,"target":34962},{"buffer":1,"byteLength":2472,"byteOffset":0,"target":34963}],"buffers":[{"byteLength":1260,"uri":"buffer185847.bin"},{"byteLength":2472,"uri":"buffer186900.bin"}],"cameras":[{"perspective":{"aspectRatio":1.3333333333333333,"yfov":0.5235987755982988,"zfar":1000.01,"znear":0.01},"type":"perspective"}],"materials":[{"pbrMetallicRoughness":{"baseColorFactor":[1.0,1.0,1.0,1.0],"metallicFactor":0.0,"roughnessFactor":1.0}}],"meshes":[{"name":"mesh0","primitives":[{"attributes":{"POSITION":0},"indices":1,"material":0,"mode":4}]}],"nodes":[{"mesh":0,"name":"mesh0"},{"camera":0,"matrix":[1.0,-0.0,0.0,-0.0,-0.0,1.0,-0.0,0.0,0.0,-0.0,1.0,-0.0,-0.0,0.0,1.0,1.0],"name":"Camera Node"},{"children":[0,1],"name":"Renderer Node"}],"scene":0,"scenes":[{"name":"Layer 0","nodes":[2]}]}