{"accessors":[{"bufferView":0,"byteOffset":0,"componentType":5126,"count":65,"max":[0.003134000115096569,-0.017322000116109848,-0.003450999967753887],"min":[-0.015116999857127666,-0.03169099986553192,-0.016318999230861664],"type":"VEC3"},{"bufferView":1,"byteOffset":0,"componentType":5125,"count":378,"type":"SCALAR"}],"asset":{"generator":"VTK","version":"2.0"},"bufferViews":[{"buffer":0,"byteLength":780,"byteOffset":0,"target":34962},{"buffer":1,"byteLength":1512,"byteOffset":0,"target":34963}],"buffers":[{"byteLength":780,"uri":"buffer379230.bin"},{"byteLength":1512,"uri":"buffer380283.bin"}],"cameras":[{"perspective":{"aspectRatio":1.3333333333333333,"yfov":0.5235987755982988,"zfar":1000.01,"znear":0.01},"type":"perspective"}],"materials":[{"pbrMetallicRoughness":{"baseColorFactor":[1.0,1.0,1.0,1.0],"metallicFactor":0.0,"roughnessFactor":1.0}}],"meshes":[{"name":"mesh0","primitives":[{"attributes":{"POSITION":0},"indices":1,"material":0,"mode":4}]}],"nodes":[{"mesh":0,"name":"mesh0"},{"camera":0,"matrix":[1.0,-0.0,0.0,-0.0,-0.0,1.0,-0.0,0.0,0.0,-0.0,1.0,-0.0,-0.0,0.0,1.0,1.0],"name":"Camera Node"},{"children":[0,1],"name":"Renderer Node"}],"scene":0,"scenes":[{"name":"Layer 0","nodes":[2]}]}