{"accessors":[{"bufferView":0,"byteOffset":0,"componentType":5126,"count":198,"max":[-0.0006900000153109431,0.013787000440061092,0.031491998583078384],"min":[-0.03384900093078613,-0.24477699398994446,-0.013620000332593918],"type":"VEC3"},{"bufferView":1,"byteOffset":0,"componentType":5125,"count":1176,"type":"SCALAR"}],"asset":{"generator":"VTK","version":"2.0"},"bufferViews":[{"buffer":0,"byteLength":2376,"byteOffset":0,"target":34962},{"buffer":1,"byteLength":4704,"byteOffset":0,"target":34963}],"buffers":[{"byteLength":2376,"uri":"buffer226100.bin"},{"byteLength":4704,"uri":"buffer227153.bin"}],"cameras":[{"perspective":{"aspectRatio":1.3333333333333333,"yfov":0.5235987755982988,"zfar":1000.01,"znear":0.01},"type":"perspective"}],"materials":[{"pbrMetallicRoughness":{"baseColorFactor":[1.0,1.0,1.0,1.0],"metallicFactor":0.0,"roughnessFactor":1.0}}],"meshes":[{"name":"mesh0","primitives":[{"attributes":{"POSITION":0},"indices":1,"material":0,"mode":4}]}],"nodes":[{"mesh":0,"name":"mesh0"},{"camera":0,"matrix":[1.0,-0.0,0.0,-0.0,-0.0,1.0,-0.0,0.0,0.0,-0.0,1.0,-0.0,-0.0,0.0,1.0,1.0],"name":"Camera Node"},{"children":[0,1],"name":"Renderer Node"}],"scene":0,"scenes":[{"name":"Layer 0","nodes":[2]}]}